<svg width="20" height="20" viewBox="0 0 20 20" fill="none" xmlns="http://www.w3.org/2000/svg">
<path d="M5.58675 10.6632L11.8368 16.9132C12.0129 17.0894 12.2517 17.1883 12.5008 17.1883C12.7499 17.1883 12.9888 17.0894 13.1649 16.9132C13.341 16.7371 13.4399 16.4983 13.4399 16.2492C13.4399 16.0001 13.341 15.7612 13.1649 15.5851L7.57816 9.99997L13.1633 4.41325C13.2505 4.32604 13.3197 4.22251 13.3669 4.10857C13.4141 3.99463 13.4384 3.87251 13.4384 3.74918C13.4384 3.62586 13.4141 3.50374 13.3669 3.3898C13.3197 3.27586 13.2505 3.17233 13.1633 3.08512C13.0761 2.99792 12.9726 2.92874 12.8586 2.88155C12.7447 2.83435 12.6226 2.81006 12.4993 2.81006C12.3759 2.81006 12.2538 2.83435 12.1399 2.88155C12.0259 2.92874 11.9224 2.99792 11.8352 3.08512L5.58519 9.33512C5.49789 9.42232 5.42867 9.5259 5.38148 9.63991C5.3343 9.75392 5.31009 9.87612 5.31023 9.99951C5.31038 10.1229 5.33488 10.245 5.38233 10.3589C5.42978 10.4728 5.49925 10.5763 5.58675 10.6632Z" fill="#01AAE8"/>
</svg>
