<svg width="20" height="20" viewBox="0 0 20 20" fill="none" xmlns="http://www.w3.org/2000/svg">
<path d="M13.75 6.25C13.75 6.00136 13.8488 5.7629 14.0246 5.58709C14.2004 5.41127 14.4389 5.3125 14.6875 5.3125H16.875C17.1236 5.3125 17.3621 5.41127 17.5379 5.58709C17.7137 5.7629 17.8125 6.00136 17.8125 6.25C17.8125 6.49864 17.7137 6.7371 17.5379 6.91291C17.3621 7.08873 17.1236 7.1875 16.875 7.1875H14.6875C14.4389 7.1875 14.2004 7.08873 14.0246 6.91291C13.8488 6.7371 13.75 6.49864 13.75 6.25ZM3.125 7.1875H10.625V8.125C10.625 8.37364 10.7238 8.6121 10.8996 8.78791C11.0754 8.96373 11.3139 9.0625 11.5625 9.0625C11.8111 9.0625 12.0496 8.96373 12.2254 8.78791C12.4012 8.6121 12.5 8.37364 12.5 8.125V4.375C12.5 4.12636 12.4012 3.8879 12.2254 3.71209C12.0496 3.53627 11.8111 3.4375 11.5625 3.4375C11.3139 3.4375 11.0754 3.53627 10.8996 3.71209C10.7238 3.8879 10.625 4.12636 10.625 4.375V5.3125H3.125C2.87636 5.3125 2.6379 5.41127 2.46209 5.58709C2.28627 5.7629 2.1875 6.00136 2.1875 6.25C2.1875 6.49864 2.28627 6.7371 2.46209 6.91291C2.6379 7.08873 2.87636 7.1875 3.125 7.1875ZM16.875 12.8125H9.6875C9.43886 12.8125 9.2004 12.9113 9.02459 13.0871C8.84877 13.2629 8.75 13.5014 8.75 13.75C8.75 13.9986 8.84877 14.2371 9.02459 14.4129C9.2004 14.5887 9.43886 14.6875 9.6875 14.6875H16.875C17.1236 14.6875 17.3621 14.5887 17.5379 14.4129C17.7137 14.2371 17.8125 13.9986 17.8125 13.75C17.8125 13.5014 17.7137 13.2629 17.5379 13.0871C17.3621 12.9113 17.1236 12.8125 16.875 12.8125ZM6.5625 10.9375C6.31386 10.9375 6.0754 11.0363 5.89959 11.2121C5.72377 11.3879 5.625 11.6264 5.625 11.875V12.8125H3.125C2.87636 12.8125 2.6379 12.9113 2.46209 13.0871C2.28627 13.2629 2.1875 13.5014 2.1875 13.75C2.1875 13.9986 2.28627 14.2371 2.46209 14.4129C2.6379 14.5887 2.87636 14.6875 3.125 14.6875H5.625V15.625C5.625 15.8736 5.72377 16.1121 5.89959 16.2879C6.0754 16.4637 6.31386 16.5625 6.5625 16.5625C6.81114 16.5625 7.0496 16.4637 7.22541 16.2879C7.40123 16.1121 7.5 15.8736 7.5 15.625V11.875C7.5 11.6264 7.40123 11.3879 7.22541 11.2121C7.0496 11.0363 6.81114 10.9375 6.5625 10.9375Z" fill="white"/>
</svg>
