<svg width="21" height="20" viewBox="0 0 21 20" fill="none" xmlns="http://www.w3.org/2000/svg">
<g id="House">
<path id="Vector" d="M17.875 9.37491V16.8749C17.875 17.0407 17.8092 17.1996 17.6919 17.3169C17.5747 17.4341 17.4158 17.4999 17.25 17.4999H12.875C12.7092 17.4999 12.5503 17.4341 12.4331 17.3169C12.3158 17.1996 12.25 17.0407 12.25 16.8749V12.8124C12.25 12.7295 12.2171 12.65 12.1585 12.5914C12.0999 12.5328 12.0204 12.4999 11.9375 12.4999H8.8125C8.72962 12.4999 8.65013 12.5328 8.59153 12.5914C8.53292 12.65 8.5 12.7295 8.5 12.8124V16.8749C8.5 17.0407 8.43415 17.1996 8.31694 17.3169C8.19973 17.4341 8.04076 17.4999 7.875 17.4999H3.5C3.33424 17.4999 3.17527 17.4341 3.05806 17.3169C2.94085 17.1996 2.875 17.0407 2.875 16.8749V9.37491C2.87515 9.04345 3.00695 8.72562 3.24141 8.49132L9.49141 2.24132C9.7258 2.00707 10.0436 1.87549 10.375 1.87549C10.7064 1.87549 11.0242 2.00707 11.2586 2.24132L17.5086 8.49132C17.743 8.72562 17.8748 9.04345 17.875 9.37491Z" fill="white"/>
</g>
</svg>
