<svg width="1009" height="920" viewBox="0 0 1009 920" fill="none" xmlns="http://www.w3.org/2000/svg">
<path d="M895.034 568.372H530.686C527.554 568.367 524.552 567.12 522.337 564.906C520.122 562.691 518.876 559.689 518.871 556.557V25.7306C518.881 22.6022 520.13 19.6053 522.344 17.3951C524.558 15.1848 527.557 13.9411 530.686 13.9358H895.034C898.162 13.9411 901.162 15.1848 903.376 17.3951C905.59 19.6053 906.838 22.6022 906.849 25.7306V556.557C906.844 559.689 905.597 562.691 903.383 564.906C901.168 567.12 898.166 568.367 895.034 568.372ZM530.686 14.4398C529.195 14.4292 527.717 14.7133 526.337 15.2757C524.957 15.8381 523.701 16.6677 522.643 17.717C521.584 18.7662 520.743 20.0143 520.168 21.3896C519.594 22.7648 519.297 24.2401 519.294 25.7306V556.557C519.294 559.557 520.486 562.434 522.607 564.555C524.728 566.676 527.605 567.868 530.605 567.868H895.034C898.034 567.868 900.911 566.676 903.032 564.555C905.153 562.434 906.345 559.557 906.345 556.557V25.7306C906.345 22.7308 905.153 19.8538 903.032 17.7326C900.911 15.6114 898.034 14.4197 895.034 14.4197L530.686 14.4398Z" fill="#F0F0F0"/>
<path d="M474.796 568.372H110.367C107.235 568.367 104.233 567.12 102.019 564.906C99.8041 562.691 98.5576 559.689 98.5522 556.557V25.7305C98.5576 22.5986 99.8041 19.5965 102.019 17.3819C104.233 15.1674 107.235 13.9209 110.367 13.9155H474.796C477.928 13.9209 480.93 15.1674 483.145 17.3819C485.36 19.5965 486.606 22.5986 486.611 25.7305V556.557C486.606 559.689 485.36 562.691 483.145 564.906C480.93 567.12 477.928 568.367 474.796 568.372ZM110.367 14.4397C107.371 14.4397 104.497 15.6287 102.376 17.7455C100.256 19.8624 99.0616 22.7341 99.0563 25.7305V556.557C99.0563 559.557 100.248 562.434 102.369 564.555C104.49 566.676 107.367 567.868 110.367 567.868H474.796C477.796 567.868 480.673 566.676 482.794 564.555C484.916 562.434 486.107 559.557 486.107 556.557V25.7305C486.107 22.7307 484.916 19.8537 482.794 17.7325C480.673 15.6113 477.796 14.4196 474.796 14.4196L110.367 14.4397Z" fill="#F0F0F0"/>
<path d="M1008.1 691.502H0V692.006H1008.1V691.502Z" fill="#E0E0E0"/>
<path d="M363.784 65.1472L427.436 65.1472C429.106 65.1472 430.46 63.7932 430.46 62.1229V47.7474C430.46 46.0771 429.106 44.723 427.436 44.723L363.784 44.723C362.114 44.723 360.76 46.0771 360.76 47.7474V62.1229C360.76 63.7932 362.114 65.1472 363.784 65.1472Z" fill="#F0F0F0"/>
<path d="M325.758 91.1765L389.41 91.1765C391.08 91.1765 392.434 89.8225 392.434 88.1522V73.7766C392.434 72.1064 391.08 70.7523 389.41 70.7523H325.758C324.088 70.7523 322.734 72.1064 322.734 73.7766V88.1522C322.734 89.8225 324.088 91.1765 325.758 91.1765Z" fill="#F0F0F0"/>
<path d="M193.919 350.985H130.267C128.597 350.985 127.243 352.339 127.243 354.009V368.385C127.243 370.055 128.597 371.409 130.267 371.409H193.919C195.589 371.409 196.943 370.055 196.943 368.385V354.009C196.943 352.339 195.589 350.985 193.919 350.985Z" fill="#F0F0F0"/>
<path d="M231.924 377.034H168.272C166.602 377.034 165.248 378.388 165.248 380.058V394.434C165.248 396.104 166.602 397.458 168.272 397.458H231.924C233.594 397.458 234.948 396.104 234.948 394.434V380.058C234.948 378.388 233.594 377.034 231.924 377.034Z" fill="#F0F0F0"/>
<path d="M807.369 371.59H743.718C742.047 371.59 740.693 372.944 740.693 374.615V388.99C740.693 390.661 742.047 392.015 743.718 392.015H807.369C809.04 392.015 810.394 390.661 810.394 388.99V374.615C810.394 372.944 809.04 371.59 807.369 371.59Z" fill="#F0F0F0"/>
<path d="M883.401 371.59H819.749C818.079 371.59 816.725 372.944 816.725 374.615V388.99C816.725 390.661 818.079 392.015 819.749 392.015H883.401C885.071 392.015 886.425 390.661 886.425 388.99V374.615C886.425 372.944 885.071 371.59 883.401 371.59Z" fill="#F0F0F0"/>
<path d="M845.375 397.62H781.724C780.053 397.62 778.699 398.974 778.699 400.644V415.019C778.699 416.69 780.053 418.044 781.724 418.044H845.375C847.045 418.044 848.399 416.69 848.399 415.019V400.644C848.399 398.974 847.045 397.62 845.375 397.62Z" fill="#F0F0F0"/>
<path d="M921.063 518.188H848.339V691.501H921.063V518.188Z" fill="#E6E6E6"/>
<path d="M865.376 518.188H692.062V691.501H865.376V518.188Z" fill="#F5F5F5"/>
<path d="M791.845 518.188H770.433V690.997H791.845V518.188Z" fill="#FAFAFA"/>
<path d="M323.903 518.188H251.179V691.501H323.903V518.188Z" fill="#E6E6E6"/>
<path d="M268.216 518.188H94.9028V691.501H268.216V518.188Z" fill="#F5F5F5"/>
<path d="M194.665 518.188H173.252V690.997H194.665V518.188Z" fill="#FAFAFA"/>
<path d="M692.083 610.39H619.358V691.522H692.083V610.39Z" fill="#E6E6E6"/>
<path d="M636.395 610.39H463.082V691.522H636.395V610.39Z" fill="#F5F5F5"/>
<path d="M562.864 610.39H541.452V691.28H562.864V610.39Z" fill="#FAFAFA"/>
<path d="M357.876 437.057H285.152V518.189H357.876V437.057Z" fill="#E6E6E6"/>
<path d="M302.209 437.057H128.896V518.189H302.209V437.057Z" fill="#F5F5F5"/>
<path d="M228.658 437.057H207.246V517.947H228.658V437.057Z" fill="#FAFAFA"/>
<path d="M716.076 52.7881H556.755V212.109H716.076V52.7881Z" fill="#E6E6E6"/>
<path d="M708.011 204.044V60.8528L564.82 60.8528V204.044H708.011Z" fill="#FAFAFA"/>
<path d="M626.818 171.522C626.818 171.522 653.029 117.609 708.011 116.541V204.044H636.416L626.818 171.522Z" fill="#F0F0F0"/>
<path d="M564.82 156.381C564.82 156.381 588.45 143.981 612.483 153.094C642.726 164.506 660.166 204.044 660.166 204.044H564.82V156.381Z" fill="#F5F5F5"/>
<path d="M613.934 131.501C627.887 131.501 639.197 120.19 639.197 106.238C639.197 92.2853 627.887 80.9746 613.934 80.9746C599.982 80.9746 588.671 92.2853 588.671 106.238C588.671 120.19 599.982 131.501 613.934 131.501Z" fill="white"/>
<path d="M262.712 52.7881H122.928V323.383H262.712V52.7881Z" fill="#E6E6E6"/>
<path d="M254.647 315.318L254.647 60.8528L130.993 60.8528V315.318H254.647Z" fill="#FAFAFA"/>
<path d="M173.817 164.97C187.77 164.97 199.08 153.659 199.08 139.707C199.08 125.754 187.77 114.444 173.817 114.444C159.865 114.444 148.554 125.754 148.554 139.707C148.554 153.659 159.865 164.97 173.817 164.97Z" fill="white"/>
<path d="M154.119 315.318C154.119 315.318 185.41 164.849 254.647 151.34V315.318H154.119Z" fill="#F0F0F0"/>
<path d="M130.993 226.02C130.993 226.02 146.921 210.657 172.164 219.851C219.585 237.089 246.058 315.318 246.058 315.318H130.993V226.02Z" fill="#F5F5F5"/>
<path d="M818.72 170.973C841.861 168.111 858.3 147.032 855.439 123.891C852.577 100.75 831.498 84.3108 808.357 87.1727C785.216 90.0345 768.777 111.114 771.638 134.255C774.5 157.395 795.58 173.835 818.72 170.973Z" fill="#E0E0E0"/>
<path d="M851.418 137.869C856.312 116.954 843.325 96.0316 822.41 91.1376C801.495 86.2437 780.573 99.2312 775.679 120.146C770.785 141.061 783.772 161.983 804.687 166.877C825.602 171.771 846.524 158.784 851.418 137.869Z" fill="#FAFAFA"/>
<path d="M813.66 93.6765H812.208V101.782H813.66V93.6765Z" fill="#E0E0E0"/>
<path d="M813.66 156.038H812.208V164.143H813.66V156.038Z" fill="#E0E0E0"/>
<path d="M785.796 128.194H777.691V129.646H785.796V128.194Z" fill="#E0E0E0"/>
<path d="M848.177 128.194H840.072V129.646H848.177V128.194Z" fill="#E0E0E0"/>
<path d="M837.382 103.542L831.65 109.272L832.676 110.299L838.408 104.569L837.382 103.542Z" fill="#E0E0E0"/>
<path d="M793.235 147.611L787.505 153.344L788.532 154.37L794.261 148.637L793.235 147.611Z" fill="#E0E0E0"/>
<path d="M788.539 103.506L787.512 104.533L793.244 110.263L794.271 109.236L788.539 103.506Z" fill="#E0E0E0"/>
<path d="M832.66 147.65L831.634 148.676L837.364 154.408L838.391 153.382L832.66 147.65Z" fill="#E0E0E0"/>
<path d="M812.64 127.93L812.182 129.094L825.934 134.508L826.391 133.344L812.64 127.93Z" fill="#E0E0E0"/>
<path d="M813.559 129.545H790.877V128.295H812.309V110.693H813.559V129.545Z" fill="#E0E0E0"/>
<path d="M942.959 779.791C942.959 786.848 748.214 792.574 507.983 792.574C267.752 792.574 73.0068 786.888 73.0068 779.791C73.0068 772.694 267.752 767.029 507.983 767.029C748.214 767.029 942.959 772.775 942.959 779.791Z" fill="#F5F5F5"/>
<path d="M775.312 279.349L813.559 313.665H647.605L615.185 279.349H775.312Z" fill="#01AAE8"/>
<path opacity="0.5" d="M775.312 279.349L813.559 313.665H647.605L615.185 279.349H775.312Z" fill="black"/>
<path d="M775.392 279.349H615.185V439.557H775.392V279.349Z" fill="#01AAE8"/>
<path opacity="0.2" d="M775.392 279.349H615.185V439.557H775.392V279.349Z" fill="black"/>
<path d="M723.939 279.349H563.731V439.557H723.939V279.349Z" fill="#01AAE8"/>
<path d="M563.791 279.349L525.544 313.665H691.498L723.918 279.349H563.791Z" fill="#01AAE8"/>
<path opacity="0.3" d="M563.791 279.349L525.544 313.665H691.498L723.918 279.349H563.791Z" fill="white"/>
<path d="M730.854 439.557H542.016V456.15H730.854V439.557Z" fill="#01AAE8"/>
<path opacity="0.3" d="M730.854 439.557H542.016V456.15H730.854V439.557Z" fill="black"/>
<path d="M800.998 439.557H730.854V456.15H800.998V439.557Z" fill="#01AAE8"/>
<path opacity="0.5" d="M800.998 439.557H730.854V456.15H800.998V439.557Z" fill="black"/>
<path d="M667.001 456.15H655.629V768.44H667.001V456.15Z" fill="#263238"/>
<path opacity="0.2" d="M667.001 456.15H655.629V768.44H667.001V456.15Z" fill="white"/>
<path opacity="0.2" d="M667.001 463.913L655.629 468.631V456.15H667.001V463.913Z" fill="black"/>
<path d="M622.08 762.089H700.571C704.918 762.089 709.087 763.816 712.162 766.89C715.236 769.964 716.963 774.134 716.963 778.481H605.668C605.668 776.327 606.093 774.194 606.918 772.204C607.743 770.214 608.952 768.406 610.476 766.883C612 765.361 613.81 764.154 615.801 763.331C617.792 762.509 619.926 762.087 622.08 762.089Z" fill="#01AAE8"/>
<path d="M173.817 616.58C173.817 616.58 187.567 611.559 191.136 626.116C194.705 640.673 204.887 636.943 206.822 633.738C210.633 627.447 211.157 604.684 204.625 603.313C196.701 601.66 176.458 609.926 173.817 616.58Z" fill="#01AAE8"/>
<g opacity="0.4">
<path d="M173.817 616.58C173.817 616.58 187.567 611.559 191.136 626.116C194.705 640.673 204.887 636.943 206.822 633.738C210.633 627.447 211.157 604.684 204.625 603.313C196.701 601.66 176.458 609.926 173.817 616.58Z" fill="black"/>
</g>
<path d="M204.523 603.313C188.394 603.535 184.119 617.709 181.519 630.209L176.276 620.511L179.986 637.891C179.583 639.806 179.18 641.56 178.696 643.073C177.424 646.776 175.338 650.146 172.592 652.938C169.846 655.729 166.51 657.87 162.828 659.202C162.828 659.202 162.103 654.202 161.457 647.105L167.345 637.871L160.953 640.552C160.248 629.544 160.147 616.358 162.828 608.757C168.01 594.18 181.922 598.676 181.922 598.676L204.523 603.313Z" fill="#01AAE8"/>
<path d="M244.727 588.01C244.727 588.01 236.259 585.449 227.387 597.567C218.859 609.22 215.451 610.591 209.665 606.055C203.878 601.518 207.366 576.114 213.919 574.743C221.722 573.11 241.965 581.377 244.727 588.01Z" fill="#01AAE8"/>
<g opacity="0.4">
<path d="M244.727 588.01C244.727 588.01 236.259 585.449 227.387 597.567C218.859 609.22 215.451 610.591 209.665 606.055C203.878 601.518 207.366 576.114 213.919 574.743C221.722 573.11 241.965 581.377 244.727 588.01Z" fill="black"/>
</g>
<path d="M271.925 654.202C264.854 651.616 258.689 647.027 254.183 640.996L263.518 619.1L250.715 635.048C250.153 633.825 249.675 632.565 249.283 631.278C243.739 613.717 244.868 575.57 212.992 575.106L244.707 567.888C244.707 567.888 264.546 561.477 271.946 582.284C273.94 588.912 274.998 595.787 275.091 602.708L263.538 592.022C263.538 592.022 271.603 603.636 275.212 608.474C275.118 623.772 274.02 639.048 271.925 654.202Z" fill="#01AAE8"/>
<path d="M164.038 554.218C164.038 554.218 177.809 549.198 181.377 563.775C184.946 578.352 202.85 583.937 204.705 576.8C206.721 569.199 202.326 542.121 195.773 540.75C187.93 539.117 166.8 547.585 164.038 554.218Z" fill="#01AAE8"/>
<g opacity="0.4">
<path d="M164.038 554.218C164.038 554.218 177.809 549.198 181.377 563.775C184.946 578.352 202.85 583.937 204.705 576.8C206.721 569.199 202.326 542.121 195.773 540.75C187.93 539.117 166.8 547.585 164.038 554.218Z" fill="black"/>
</g>
<path d="M196.358 540.871C170.289 541.254 165.913 567.082 162.083 586.135L148.796 566.961C148.957 567.525 155.994 590.389 158.736 599.442C152.687 615.451 136.759 620.41 136.759 620.41C136.759 620.41 132.344 589.825 133.755 566.336L144.521 557.364L134.34 559.884C134.728 556.01 135.54 552.19 136.759 548.492C144.159 527.705 164.018 534.117 164.018 534.117L196.358 540.871Z" fill="#01AAE8"/>
<path d="M206.721 668.194C206.482 668.164 206.265 668.042 206.114 667.854C205.963 667.666 205.892 667.426 205.915 667.186C211.067 617.166 206.327 566.621 191.963 518.431C191.885 518.201 191.901 517.949 192.006 517.731C192.112 517.512 192.299 517.344 192.527 517.261C192.757 517.191 193.006 517.212 193.22 517.321C193.435 517.43 193.598 517.619 193.677 517.846C193.919 518.511 216.661 586.639 207.588 667.388C207.564 667.604 207.464 667.804 207.305 667.952C207.146 668.1 206.939 668.186 206.721 668.194Z" fill="#01AAE8"/>
<path d="M241.803 662.348H172.022V672.126H241.803V662.348Z" fill="#263238"/>
<path opacity="0.2" d="M241.803 662.348H172.022V672.126H241.803V662.348Z" fill="white"/>
<path d="M230.533 672.126H182.91C177.204 685.393 158.715 724.547 158.715 736.1C158.715 749.79 175.772 778.299 175.772 778.299C175.772 780.316 237.69 780.316 237.69 778.299C237.69 778.299 254.747 749.79 254.747 736.1C254.747 724.547 236.319 685.393 230.533 672.126Z" fill="#263238"/>
<path d="M305.173 127.125C328.613 127.125 347.614 108.124 347.614 84.6843C347.614 61.2447 328.613 42.2432 305.173 42.2432C281.733 42.2432 262.732 61.2447 262.732 84.6843C262.732 108.124 281.733 127.125 305.173 127.125Z" fill="#01AAE8"/>
<g opacity="0.7">
<path d="M305.173 127.125C328.613 127.125 347.614 108.124 347.614 84.6843C347.614 61.2447 328.613 42.2432 305.173 42.2432C281.733 42.2432 262.732 61.2447 262.732 84.6843C262.732 108.124 281.733 127.125 305.173 127.125Z" fill="white"/>
</g>
<path d="M305.173 127.992C296.607 127.996 288.231 125.46 281.107 120.703C273.982 115.947 268.428 109.185 265.147 101.272C261.866 93.3584 261.006 84.65 262.674 76.2477C264.343 67.8454 268.466 60.1268 274.522 54.068C280.578 48.0093 288.295 43.8826 296.696 42.2099C305.098 40.5372 313.807 41.3936 321.721 44.6709C329.636 47.9482 336.401 53.4991 341.161 60.6215C345.92 67.744 348.461 76.1179 348.461 84.6843C348.45 96.1636 343.887 107.17 335.772 115.289C327.656 123.408 316.652 127.976 305.173 127.992ZM305.173 43.1303C296.949 43.1263 288.908 45.5617 282.068 50.1284C275.228 54.6951 269.896 61.1879 266.747 68.7854C263.598 76.3829 262.773 84.7438 264.377 92.8103C265.98 100.877 269.94 108.286 275.755 114.102C281.571 119.917 288.981 123.877 297.047 125.481C305.114 127.084 313.474 126.259 321.072 123.11C328.669 119.961 335.162 114.629 339.729 107.789C344.296 100.949 346.731 92.9086 346.727 84.6843C346.711 73.6684 342.328 63.1083 334.538 55.3189C326.749 47.5295 316.189 43.1463 305.173 43.1303Z" fill="#01AAE8"/>
<path d="M305.516 61.115C314.689 61.115 320.94 66.5184 320.94 75.4502C320.94 85.1078 314.084 89.362 304.81 89.362L304.528 94.7856H297.753L297.41 84.0191H299.669C307.411 84.0191 313.379 82.6481 313.379 75.4502C313.467 74.3981 313.322 73.3395 312.955 72.3496C312.588 71.3596 312.008 70.4624 311.256 69.7217C310.504 68.9809 309.598 68.4147 308.602 68.0632C307.607 67.7118 306.546 67.5836 305.495 67.6878C300.616 67.6878 297.531 70.4299 297.531 75.2284H290.192C290.213 66.9418 296.181 61.115 305.516 61.115ZM301.12 109.947C300.124 109.963 299.146 109.683 298.309 109.141C297.473 108.599 296.817 107.821 296.425 106.905C296.033 105.989 295.922 104.977 296.106 103.998C296.291 103.019 296.762 102.117 297.461 101.407C298.16 100.697 299.054 100.21 300.03 100.01C301.006 99.8096 302.02 99.9042 302.942 100.282C303.864 100.659 304.653 101.303 305.208 102.13C305.763 102.957 306.06 103.931 306.06 104.927C306.071 105.583 305.951 106.234 305.707 106.842C305.464 107.451 305.102 108.005 304.642 108.472C304.182 108.94 303.634 109.311 303.029 109.564C302.425 109.817 301.776 109.948 301.12 109.947Z" fill="#01AAE8"/>
<path d="M331.706 117.79L345.557 124.666C345.716 124.753 345.898 124.787 346.078 124.766C346.257 124.744 346.426 124.666 346.559 124.544C346.692 124.422 346.784 124.261 346.821 124.084C346.859 123.907 346.84 123.723 346.767 123.557L340.718 107.851C338.25 111.613 335.209 114.967 331.706 117.79Z" fill="#01AAE8"/>
<path d="M342.714 195.092C344.731 204.85 427.637 200.979 423.766 188.378C422.896 186.133 421.886 183.944 420.742 181.825C415.358 170.232 406.386 155.615 377.413 155.756C359.973 155.816 337.009 166.361 342.714 195.092Z" fill="#01AAE8"/>
<path d="M445.501 743.197L449.755 764.69H461.106L462.639 743.197H445.501Z" fill="#FFC3BD"/>
<path d="M459.614 761.968C460.187 761.249 460.949 760.704 461.814 760.394C462.68 760.084 463.615 760.022 464.514 760.214C467.236 761.121 470.804 765.597 470.804 765.597C470.804 765.597 485.623 770.356 489.636 770.598C493.648 770.84 497.136 773.098 498.628 780.86H450.037C450.037 780.86 448.122 763.339 447.819 760.355C447.517 757.371 452.275 761.101 452.275 761.101L459.614 761.968Z" fill="#01AAE8"/>
<path d="M497.196 778.541H488.446L450.138 778.138C449.654 778.138 449.654 777.372 450.138 777.392H452.719C452.708 777.359 452.708 777.324 452.719 777.291C453.475 775.388 453.479 773.269 452.73 771.363C451.981 769.457 450.536 767.908 448.686 767.029C448.644 767.005 448.607 766.973 448.577 766.935C448.547 766.896 448.524 766.853 448.511 766.806C448.498 766.759 448.494 766.71 448.5 766.662C448.506 766.614 448.521 766.567 448.545 766.525C448.569 766.482 448.601 766.445 448.639 766.415C448.677 766.385 448.721 766.363 448.768 766.35C448.815 766.337 448.864 766.333 448.912 766.339C448.96 766.344 449.007 766.36 449.049 766.383C451.022 767.339 452.563 769.002 453.366 771.041C454.169 773.081 454.175 775.348 453.384 777.392H458.767L497.075 777.795C497.68 777.775 497.68 778.561 497.196 778.541Z" fill="black"/>
<path d="M469.09 768.642C469.438 768.074 469.901 767.586 470.451 767.21C471 766.834 471.623 766.579 472.278 766.461C472.933 766.343 473.606 766.365 474.252 766.525C474.898 766.686 475.502 766.981 476.026 767.392C476.409 767.674 476.792 767.029 476.409 766.746C475.798 766.268 475.091 765.925 474.337 765.741C473.583 765.557 472.798 765.536 472.035 765.679C471.272 765.822 470.548 766.126 469.912 766.571C469.275 767.016 468.741 767.591 468.344 768.259C468.062 768.662 468.707 769.045 468.989 768.642H469.09Z" fill="white"/>
<path d="M473.264 769.912C473.61 769.342 474.072 768.853 474.621 768.475C475.169 768.097 475.792 767.84 476.447 767.72C477.102 767.6 477.775 767.62 478.422 767.779C479.069 767.938 479.675 768.232 480.2 768.642C480.603 768.944 480.966 768.299 480.583 767.996C479.97 767.519 479.263 767.177 478.508 766.995C477.752 766.812 476.967 766.793 476.204 766.938C475.441 767.083 474.717 767.389 474.082 767.836C473.446 768.283 472.913 768.86 472.518 769.529C472.236 769.932 472.901 770.295 473.163 769.912H473.264Z" fill="white"/>
<path d="M477.599 771.163C477.944 770.595 478.406 770.108 478.953 769.732C479.501 769.356 480.122 769.101 480.776 768.983C481.429 768.865 482.1 768.887 482.745 769.047C483.389 769.207 483.992 769.502 484.514 769.913C484.918 770.195 485.281 769.55 484.897 769.267C484.288 768.804 483.588 768.474 482.843 768.3C482.098 768.125 481.325 768.11 480.573 768.254C479.822 768.399 479.109 768.7 478.482 769.139C477.855 769.577 477.327 770.143 476.933 770.8C476.671 771.183 477.317 771.566 477.599 771.163Z" fill="white"/>
<path d="M343.864 743.358L346.223 764.69H357.574L360.981 743.358H343.864Z" fill="#FFC3BD"/>
<path d="M356.082 761.968C356.651 761.251 357.41 760.706 358.272 760.396C359.134 760.086 360.065 760.023 360.961 760.214C363.703 761.121 367.272 765.597 367.272 765.597C367.272 765.597 382.091 770.356 386.103 770.598C390.116 770.84 393.604 773.098 395.096 780.86H346.586C346.586 780.86 344.67 763.339 344.368 760.355C344.065 757.371 348.824 761.101 348.824 761.101L356.082 761.968Z" fill="#01AAE8"/>
<path d="M393.583 778.541H384.833L346.525 778.138C346.041 778.138 346.041 777.372 346.525 777.392H349.106C349.095 777.359 349.095 777.324 349.106 777.291C349.862 775.388 349.866 773.269 349.117 771.363C348.369 769.457 346.923 767.908 345.073 767.029C345.031 767.005 344.994 766.973 344.964 766.935C344.934 766.896 344.912 766.853 344.898 766.806C344.885 766.759 344.882 766.71 344.887 766.662C344.893 766.614 344.908 766.567 344.932 766.525C344.956 766.482 344.988 766.445 345.026 766.415C345.065 766.385 345.108 766.363 345.155 766.35C345.202 766.337 345.251 766.333 345.299 766.339C345.347 766.344 345.394 766.36 345.436 766.383C347.409 767.339 348.95 769.002 349.753 771.041C350.556 773.081 350.563 775.348 349.771 777.392H355.154L393.462 777.795C394.148 777.775 394.148 778.561 393.583 778.541Z" fill="black"/>
<path d="M365.558 768.642C365.906 768.074 366.369 767.586 366.919 767.211C367.468 766.835 368.091 766.579 368.746 766.461C369.401 766.343 370.074 766.365 370.72 766.526C371.366 766.686 371.97 766.981 372.494 767.392C372.877 767.674 373.26 767.029 372.877 766.747C372.269 766.283 371.571 765.952 370.826 765.776C370.082 765.6 369.309 765.582 368.558 765.725C367.806 765.868 367.093 766.167 366.465 766.604C365.837 767.04 365.309 767.604 364.913 768.259C364.631 768.662 365.276 769.045 365.558 768.642Z" fill="white"/>
<path d="M369.732 769.912C370.078 769.342 370.54 768.853 371.089 768.475C371.637 768.097 372.259 767.84 372.915 767.72C373.57 767.6 374.243 767.62 374.89 767.779C375.537 767.938 376.143 768.232 376.668 768.642C377.051 768.944 377.434 768.299 377.051 767.996C376.438 767.519 375.731 767.177 374.975 766.995C374.22 766.812 373.435 766.793 372.672 766.938C371.908 767.083 371.185 767.389 370.549 767.836C369.914 768.283 369.381 768.86 368.986 769.529C368.704 769.932 369.369 770.295 369.631 769.912H369.732Z" fill="white"/>
<path d="M374.067 771.163C374.412 770.595 374.874 770.108 375.421 769.732C375.969 769.356 376.59 769.101 377.243 768.983C377.897 768.865 378.568 768.887 379.212 769.047C379.857 769.207 380.46 769.502 380.982 769.913C381.385 770.195 381.748 769.55 381.365 769.267C380.756 768.804 380.056 768.474 379.311 768.3C378.566 768.125 377.792 768.11 377.041 768.254C376.289 768.399 375.577 768.7 374.95 769.139C374.323 769.577 373.795 770.143 373.401 770.8C373.139 771.183 373.784 771.566 374.067 771.163Z" fill="white"/>
<path d="M441.73 743.964H466.792C468.969 711.704 475.099 604.704 470.26 551.759C473.748 478.308 462.517 380.825 462.517 380.825H383.099C383.099 380.825 388.926 446.069 415.036 550.71C414.854 633.617 435.097 716.503 441.73 743.964Z" fill="#263238"/>
<path opacity="0.2" d="M410.762 533.129C425.117 474.477 412.516 398.446 412.516 398.446L400.116 485.304L410.762 533.129Z" fill="black"/>
<path d="M438.747 743.338L440.581 752.855L469.332 752.734V743.197L438.747 743.338Z" fill="#263238"/>
<path d="M340.295 744.891H365.357C374.288 711.684 392.233 604.906 395.096 551.96C409.31 478.51 416.104 380.825 416.104 380.825H336.686C336.686 380.825 329.287 446.815 340.154 551.456C338.037 642.69 339.71 716.503 340.295 744.891Z" fill="#263238"/>
<path d="M338.098 743.298L338.037 752.754H367.01L368.542 743.318L338.098 743.298Z" fill="#263238"/>
<path d="M472.901 392.801C417.778 413.971 328.077 398.729 328.077 398.729C329.146 371.792 330.093 318.443 329.71 274.107C329.71 273.079 329.71 272.091 329.71 271.022C329.71 264.732 329.549 258.643 329.428 252.876C329.428 252.171 329.428 251.465 329.428 250.86C329.065 239.448 328.682 229.367 328.158 221.303C327.15 206.201 335.356 192.148 350.336 189.628C354.873 188.862 359.772 188.196 364.873 187.612L368.563 187.229C383.134 185.802 397.779 185.27 412.415 185.636H414.532H415.661H417.496C423.807 185.898 429.795 186.362 435.158 187.067C447.255 188.64 458.163 198.257 458.364 210.556C458.546 221.827 459.655 245.618 461.248 272.454C461.852 282.535 462.538 293.241 463.264 303.765C466.167 345.4 469.796 385.563 472.901 392.801Z" fill="#01AAE8"/>
<path d="M332.351 343.505C332.265 343.483 332.175 343.483 332.089 343.505L324.024 358.485L322.492 357.618L322.109 357.376L321.867 357.215L321.424 356.892L320.496 356.247L319.75 355.683C318.722 354.916 317.895 354.231 317.008 353.505C315.335 352.074 313.742 350.662 312.189 349.231C309.105 346.388 306.141 343.545 303.197 340.662C297.39 334.835 291.765 328.907 286.301 322.818C280.837 316.73 275.494 310.499 270.172 303.826C268.861 302.152 267.53 300.418 266.139 298.564C265.474 297.596 264.829 296.709 264.123 295.6C263.417 294.491 262.752 293.402 261.966 291.93L261.341 290.599L261.018 289.934L260.574 288.704L260.191 287.414C259.978 286.718 259.836 286.002 259.768 285.277C259.615 283.937 259.615 282.584 259.768 281.244L259.889 280.256C259.889 279.954 260.01 279.571 260.05 279.45L260.353 278.381C260.583 277.655 260.852 276.941 261.159 276.244L261.623 275.236L261.885 274.732L261.986 274.551L262.853 273.119C263.538 272.03 263.861 271.607 264.304 270.982C266.018 268.623 267.389 266.949 268.821 265.236C274.446 258.602 280.011 252.735 285.636 246.787C291.261 240.84 296.947 235.134 302.733 229.508C314.246 218.157 325.94 207.129 338.138 196.503L361.203 221.867C349.731 232.855 337.896 243.602 326.101 254.247L308.479 270.216C302.834 275.276 297.148 280.498 292.047 285.498C292.451 286.224 292.874 286.95 293.318 287.676C297.229 294.128 301.665 300.681 306.02 307.213C310.375 313.746 314.931 320.258 319.488 326.649C321.746 329.875 324.024 333.061 326.343 336.146C327.492 337.698 328.662 339.17 329.791 340.601L331.384 342.618L332.009 343.364L332.351 343.505Z" fill="#01AAE8"/>
<path d="M395.398 289.228C395.332 289.223 395.267 289.205 395.208 289.175C395.149 289.145 395.096 289.103 395.053 289.053C395.01 289.002 394.977 288.943 394.957 288.88C394.937 288.817 394.929 288.75 394.934 288.684C397.878 247.13 387.595 203.802 387.495 203.378C387.462 203.247 387.484 203.109 387.554 202.994C387.624 202.878 387.737 202.795 387.868 202.763C387.999 202.731 388.137 202.753 388.252 202.823C388.368 202.892 388.45 203.005 388.483 203.136C388.583 203.58 398.906 247.029 395.942 288.765C395.937 288.831 395.919 288.896 395.889 288.955C395.859 289.014 395.817 289.067 395.767 289.11C395.716 289.153 395.658 289.186 395.594 289.206C395.531 289.226 395.464 289.234 395.398 289.228Z" fill="white"/>
<path d="M419.129 288.281C418.999 288.27 418.878 288.21 418.791 288.112C418.705 288.015 418.659 287.887 418.665 287.757C421.609 246.182 411.346 202.874 411.245 202.451C411.218 202.384 411.205 202.312 411.208 202.24C411.211 202.167 411.229 202.097 411.262 202.032C411.294 201.967 411.341 201.911 411.397 201.866C411.454 201.82 411.519 201.788 411.589 201.77C411.66 201.753 411.733 201.751 411.804 201.764C411.875 201.777 411.942 201.805 412.001 201.847C412.061 201.889 412.11 201.943 412.147 202.005C412.183 202.067 412.206 202.137 412.213 202.209C412.314 202.632 422.637 246.102 419.673 287.817C419.668 287.883 419.65 287.948 419.62 288.007C419.59 288.066 419.548 288.119 419.497 288.162C419.447 288.205 419.388 288.238 419.325 288.258C419.262 288.279 419.195 288.286 419.129 288.281Z" fill="white"/>
<path opacity="0.2" d="M463.243 303.967C442.524 273.709 427.146 240.123 417.778 204.669L461.247 272.655C461.812 282.817 462.497 293.442 463.243 303.967Z" fill="black"/>
<path opacity="0.2" d="M357.292 330.298C357.292 330.298 361.203 356.751 359.812 371.973C359.812 371.973 403.241 378.788 448.949 368.667C450.996 354.963 450.165 340.982 446.509 327.617C419.653 326.266 389.551 327.516 357.292 330.298Z" fill="black"/>
<path d="M422.919 101.439C418.678 99.8876 414.164 99.2231 409.655 99.4867C405.147 99.7502 400.74 100.936 396.709 102.971C391.406 105.733 386.809 109.947 386.93 116.278C387.192 131.057 391.305 155.756 391.305 155.756L441.166 133.214C441.166 133.214 444.795 120.855 438.968 113.052C434.969 107.594 429.355 103.531 422.919 101.439Z" fill="#263238"/>
<path d="M387.091 131.743C387.091 131.743 388.18 127.468 383.22 119.484C378.26 111.5 383.704 106.56 387.494 107.689C387.494 107.689 385.478 102.79 388.825 101.116C392.172 99.443 393.785 101.338 393.785 101.338C397.973 98.3167 402.729 96.1734 407.767 95.0369C412.805 93.9004 418.021 93.7944 423.101 94.7251C436.71 97.4268 446.751 87.9305 451.811 91.6201C456.872 95.3098 447.779 98.7776 447.779 98.7776C447.779 98.7776 455.844 103.274 454.674 107.467C453.505 111.661 445.924 111.984 445.924 111.984C445.924 111.984 453.686 117.145 450.521 120.573C447.356 124 437.476 119.847 437.476 119.847C437.476 119.847 398.221 119.645 387.091 131.743Z" fill="#263238"/>
<path d="M413.04 174.123C413.033 174.177 413.033 174.231 413.04 174.284L409.895 182.47C409.539 184.143 409.33 185.843 409.27 187.551C409.233 188.898 409.293 190.246 409.451 191.584C411.024 194.326 411.286 200.173 404.713 199.487C396.406 198.64 382.333 185.616 382.172 181.886C387.253 170.978 392.071 157.308 392.616 146.4L400.983 157.671L413.04 174.123Z" fill="#FFC3BD"/>
<g opacity="0.2">
<path d="M412.959 174.305L409.814 182.491C404.874 179.547 399.995 173.861 399.37 168.196C398.926 164.163 401.124 160.574 402.757 160.554L412.959 174.305Z" fill="black"/>
</g>
<path d="M435.924 158.982C435.238 160.756 434.492 162.49 433.706 164.204C426.77 179.325 407.254 178.66 396.467 165.776C395.48 164.607 394.59 163.36 393.805 162.046C387.253 151.159 390.015 143.618 393.08 126.178C393.764 122.128 395.467 118.32 398.03 115.11C400.592 111.901 403.93 109.397 407.728 107.834C411.526 106.271 415.659 105.7 419.738 106.176C423.817 106.651 427.708 108.158 431.045 110.552C444.755 120.492 442.799 141.219 435.924 158.982Z" fill="#FFC3BD"/>
<path d="M420.298 157.328C419.989 157.76 419.566 158.096 419.076 158.3C418.585 158.503 418.048 158.565 417.524 158.479C417.001 158.393 416.512 158.162 416.112 157.812C415.713 157.463 415.42 157.008 415.266 156.5C415.112 155.993 415.103 155.452 415.24 154.939C415.377 154.426 415.655 153.962 416.042 153.6C416.43 153.237 416.911 152.99 417.431 152.886C417.952 152.782 418.491 152.827 418.987 153.014C419.722 153.423 420.27 154.101 420.514 154.906C420.759 155.711 420.681 156.579 420.298 157.328Z" fill="white"/>
<path d="M407.697 123.436C412.234 122.811 409.149 117.79 410.117 114.968C413.302 105.834 438.162 112.085 441.025 126.077C441.025 126.077 440.34 115.411 432.577 108.879C424.815 102.346 408.121 99.3825 400.439 106.863C392.757 114.343 392.717 127.71 392.717 127.71C392.612 129.17 393.074 130.615 394.007 131.743C394.834 132.549 396.285 136.239 398.705 137.207C400.721 138.053 402.334 137.711 403.1 134.727C403.866 131.743 404.552 123.859 407.697 123.436Z" fill="#263238"/>
<path d="M382.877 135.836C382.982 138.037 383.52 140.196 384.461 142.189C385.402 144.182 386.728 145.97 388.361 147.449C392.777 151.38 397.555 148.074 398.442 142.55C399.289 137.59 398.019 129.585 392.555 127.771C387.091 125.956 382.474 130.392 382.817 135.836" fill="#FFC3BD"/>
<path d="M418.504 136.824C418.181 138.195 418.645 139.465 419.532 139.666C420.419 139.868 421.387 138.961 421.71 137.65C422.032 136.34 421.589 135.009 420.702 134.807C419.815 134.606 418.827 135.513 418.504 136.824Z" fill="#263238"/>
<path d="M433.383 140.211C433.061 141.561 433.525 142.832 434.412 143.053C435.299 143.275 436.267 142.328 436.589 141.037C436.912 139.747 436.468 138.416 435.581 138.215C434.694 138.013 433.726 138.92 433.383 140.231" fill="#263238"/>
<path d="M438.706 136.138C438.585 136.107 438.474 136.047 438.383 135.963C438.291 135.878 438.222 135.772 438.182 135.654C438.074 135.169 437.871 134.711 437.583 134.306C437.296 133.901 436.931 133.557 436.509 133.295C435.605 132.88 434.585 132.794 433.625 133.053C433.538 133.084 433.446 133.096 433.353 133.089C433.261 133.082 433.171 133.056 433.09 133.013C433.008 132.969 432.936 132.909 432.879 132.836C432.822 132.763 432.781 132.679 432.758 132.589C432.731 132.502 432.721 132.41 432.729 132.319C432.737 132.227 432.764 132.139 432.807 132.058C432.85 131.977 432.909 131.906 432.981 131.848C433.052 131.79 433.134 131.748 433.222 131.722C434.561 131.318 436.003 131.441 437.255 132.065C437.848 132.408 438.364 132.869 438.77 133.421C439.176 133.973 439.463 134.603 439.614 135.271C439.641 135.36 439.65 135.453 439.641 135.545C439.631 135.638 439.603 135.727 439.557 135.808C439.512 135.889 439.451 135.96 439.377 136.017C439.304 136.074 439.22 136.115 439.13 136.138C439.063 136.169 438.991 136.184 438.918 136.184C438.845 136.184 438.773 136.169 438.706 136.138Z" fill="#263238"/>
<path d="M415.621 130.573C415.502 130.556 415.391 130.507 415.298 130.432C415.145 130.303 415.048 130.118 415.029 129.918C415.01 129.719 415.071 129.519 415.197 129.364C416.177 128.246 417.533 127.529 419.008 127.347C419.746 127.309 420.484 127.422 421.178 127.678C421.871 127.935 422.505 128.33 423.04 128.839C423.181 128.986 423.259 129.181 423.259 129.384C423.259 129.587 423.181 129.782 423.04 129.928C422.897 130.067 422.706 130.145 422.506 130.145C422.306 130.145 422.115 130.067 421.972 129.928C421.587 129.557 421.132 129.266 420.633 129.072C420.135 128.878 419.603 128.785 419.068 128.799C417.996 128.941 417.013 129.472 416.306 130.291C416.225 130.392 416.12 130.471 416 130.521C415.88 130.57 415.749 130.588 415.621 130.573Z" fill="#263238"/>
<path d="M427.859 137.832C428.274 141.428 429.141 144.957 430.44 148.336C432.335 152.651 424.895 151.038 424.895 151.038L427.859 137.832Z" fill="#ED847E"/>
<path opacity="0.2" d="M355.558 228.097L329.67 270.921C329.67 264.631 329.509 258.542 329.388 252.776C329.388 252.07 329.388 251.364 329.388 250.759L355.558 228.097Z" fill="black"/>
<path d="M480.603 292.233C476.631 293.991 472.155 294.24 468.012 292.934C463.87 291.627 460.346 288.854 458.102 285.136L457.215 283.644L455.461 280.639C455.159 280.155 454.876 279.651 454.594 279.147C453.646 277.534 452.719 275.901 451.771 274.268L448.646 268.804L445.541 263.34C444.493 261.526 443.525 259.691 442.456 257.876C441.388 256.062 440.44 254.207 439.392 252.372L439.029 251.707L433.303 241.344C429.27 233.964 425.238 226.565 421.448 219.165C417.657 211.766 413.746 204.205 410.137 196.564L426.004 186.18C431.549 192.551 436.872 199.084 442.134 205.637L443.888 207.834L455.985 201.503C459.01 206.826 461.873 212.23 464.695 217.633C467.518 223.036 470.28 228.52 472.982 234.005C475.684 239.489 478.385 244.993 481.047 250.537C483.708 256.082 486.269 261.627 488.809 267.191L489.515 268.764C490.472 270.89 491 273.184 491.07 275.514C491.14 277.844 490.75 280.166 489.923 282.345C489.095 284.525 487.846 286.52 486.247 288.216C484.648 289.913 482.73 291.278 480.603 292.233Z" fill="#01AAE8"/>
<path d="M448.545 268.804L448.021 267.675C446.126 264.409 444.271 261.122 442.457 257.816C443.465 259.631 444.473 261.465 445.541 263.28L448.545 268.804Z" fill="#01AAE8"/>
<path d="M425.843 190.213C425.46 193.277 423.242 198.036 418.786 197.874C416.02 197.739 413.295 197.146 410.721 196.12C407.314 195.253 400.923 193.096 398.725 188.882C395.64 182.995 400.459 173.76 400.459 173.76C395.459 169.022 389.551 160.877 393.685 162.732C397.818 164.587 414.028 175.918 419.895 174.627C425.299 173.438 427.194 168.76 429.21 169.708C431.226 170.655 427.194 174.99 425.057 179.345C425.851 182.91 426.116 186.571 425.843 190.213Z" fill="#FFC3BD"/>
<g opacity="0.2">
<path d="M409.29 196.201H409.068C408.665 195.999 398.866 191.402 397.092 186.402C395.519 181.926 398.906 175.494 399.834 173.881C397.01 171.55 394.527 168.836 392.455 165.817C391.749 164.365 391.588 163.316 391.971 162.631C392.058 162.466 392.185 162.324 392.339 162.219C392.494 162.113 392.672 162.047 392.858 162.026C394.874 162.026 397.052 163.599 399.975 165.756C403.508 168.514 407.351 170.848 411.427 172.712C420.238 176.583 421.831 174.224 422.879 172.712L423.262 172.127C424.432 170.454 426.387 167.651 429.694 169.002C429.754 169.026 429.809 169.063 429.855 169.108C429.901 169.154 429.938 169.209 429.962 169.269C429.986 169.329 429.999 169.394 429.998 169.459C429.996 169.524 429.982 169.588 429.956 169.647C429.934 169.709 429.899 169.766 429.854 169.815C429.809 169.863 429.755 169.901 429.694 169.928C429.634 169.954 429.569 169.968 429.503 169.968C429.437 169.969 429.372 169.955 429.311 169.93C426.932 168.982 425.541 170.615 424.089 172.712L423.706 173.277C422.133 175.595 419.855 177.551 411.024 173.68C406.881 171.787 402.976 169.412 399.39 166.603C396.709 164.587 394.612 163.095 392.918 163.054C392.918 163.054 392.918 163.054 392.918 163.195C392.918 163.337 392.697 163.881 393.443 165.413C394.814 168.236 400.822 173.478 400.882 173.478C400.962 173.567 401.006 173.682 401.006 173.801C401.006 173.92 400.962 174.035 400.882 174.123C400.882 174.123 396.406 181.543 398.019 186.221C399.632 190.898 409.391 195.394 409.471 195.435C409.579 195.48 409.667 195.562 409.721 195.665C409.775 195.768 409.791 195.887 409.767 196.001C409.744 196.115 409.681 196.218 409.59 196.291C409.5 196.364 409.386 196.403 409.27 196.402L409.29 196.201Z" fill="black"/>
</g>
<path opacity="0.2" d="M433.061 194.245L476.248 259.953C476.248 259.953 471.208 237.936 433.061 194.245Z" fill="black"/>
<path d="M329.408 343.848C329.408 343.848 346.788 349.191 348.179 352.578C349.57 355.965 343.864 355.098 343.864 355.098C343.864 355.098 350.054 356.388 349.913 358.788C349.711 361.651 343.763 360.703 343.763 360.703C343.763 360.703 348.784 361.953 348.481 364.05C348.179 366.147 341.364 365.602 341.364 365.602C341.364 365.602 344.751 367.074 343.582 368.385C342.412 369.695 329.791 368.788 325.799 365.945C321.807 363.102 324.388 347.194 325.557 343.767C326.726 340.339 324.67 336.71 329.589 332.738L329.428 343.888L329.408 343.848Z" fill="#FFC3BD"/>
<path opacity="0.2" d="M343.824 355.36L333.097 352.618C333.03 352.599 332.971 352.555 332.934 352.496C332.897 352.436 332.883 352.365 332.896 352.295C332.922 352.228 332.97 352.172 333.032 352.135C333.094 352.099 333.167 352.084 333.238 352.094L343.924 354.836C343.959 354.843 343.992 354.857 344.022 354.877C344.051 354.897 344.076 354.923 344.095 354.954C344.113 354.984 344.126 355.018 344.131 355.053C344.137 355.088 344.135 355.124 344.126 355.158C344.111 355.224 344.072 355.282 344.015 355.32C343.959 355.358 343.89 355.372 343.824 355.36Z" fill="black"/>
<path opacity="0.2" d="M343.4 360.925L332.936 359.009C332.9 359.008 332.865 358.998 332.834 358.981C332.802 358.964 332.775 358.94 332.753 358.911C332.732 358.882 332.718 358.849 332.711 358.813C332.704 358.778 332.705 358.742 332.714 358.707C332.707 358.658 332.713 358.608 332.732 358.562C332.75 358.516 332.78 358.476 332.819 358.445C332.858 358.415 332.904 358.395 332.953 358.388C333.002 358.381 333.051 358.386 333.097 358.404L343.582 360.421C343.651 360.421 343.718 360.448 343.767 360.497C343.816 360.547 343.844 360.613 343.844 360.683C343.844 360.752 343.816 360.819 343.767 360.868C343.718 360.917 343.651 360.945 343.582 360.945L343.4 360.925Z" fill="black"/>
<path opacity="0.2" d="M340.96 365.804L333.117 364.594C333.083 364.589 333.05 364.577 333.02 364.56C332.99 364.542 332.964 364.518 332.943 364.49C332.922 364.461 332.907 364.429 332.899 364.395C332.891 364.361 332.89 364.326 332.896 364.292C332.91 364.22 332.952 364.157 333.012 364.116C333.072 364.074 333.146 364.058 333.218 364.07L341.041 365.28C341.076 365.285 341.109 365.296 341.139 365.314C341.169 365.332 341.195 365.356 341.216 365.384C341.236 365.412 341.251 365.444 341.259 365.478C341.267 365.512 341.269 365.548 341.263 365.582C341.261 365.618 341.251 365.653 341.234 365.685C341.217 365.716 341.193 365.744 341.164 365.765C341.135 365.786 341.102 365.801 341.067 365.807C341.032 365.814 340.995 365.813 340.96 365.804Z" fill="black"/>
<path d="M87.9233 901V844.249H98.9693V871.224L122.822 844.169H134.989L113.217 869.383L136.35 901H123.863L106.173 876.507L98.9693 884.031V901H87.9233ZM157.064 901.8C153.703 901.8 150.661 901.24 147.939 900.12C145.218 898.946 142.897 897.371 140.976 895.397C139.054 893.369 137.56 891.075 136.493 888.513C135.479 885.898 134.972 883.15 134.972 880.269C134.972 876.266 135.853 872.611 137.614 869.303C139.428 865.994 141.989 863.353 145.298 861.378C148.66 859.35 152.609 858.337 157.144 858.337C161.734 858.337 165.656 859.35 168.911 861.378C172.166 863.353 174.647 865.994 176.355 869.303C178.116 872.558 178.996 876.08 178.996 879.868C178.996 880.509 178.97 881.176 178.916 881.869C178.863 882.51 178.81 883.043 178.756 883.47H146.339C146.552 885.605 147.166 887.473 148.18 889.073C149.247 890.674 150.581 891.902 152.182 892.755C153.836 893.556 155.597 893.956 157.465 893.956C159.599 893.956 161.6 893.449 163.468 892.435C165.389 891.368 166.696 889.981 167.39 888.273L176.595 890.834C175.581 892.969 174.114 894.863 172.193 896.518C170.325 898.172 168.11 899.479 165.549 900.44C162.988 901.347 160.159 901.8 157.064 901.8ZM146.098 876.667H168.03C167.817 874.532 167.203 872.691 166.189 871.144C165.229 869.543 163.948 868.315 162.347 867.462C160.746 866.554 158.959 866.101 156.984 866.101C155.063 866.101 153.302 866.554 151.701 867.462C150.154 868.315 148.873 869.543 147.859 871.144C146.899 872.691 146.312 874.532 146.098 876.667ZM210.504 868.342C207.249 868.342 204.341 868.982 201.78 870.263C199.218 871.49 197.377 873.278 196.257 875.626V901H185.531V859.057H195.376V868.022C196.87 865.14 198.765 862.872 201.059 861.218C203.354 859.564 205.782 858.657 208.343 858.497C208.93 858.497 209.384 858.497 209.704 858.497C210.024 858.497 210.291 858.523 210.504 858.577V868.342ZM213.369 888.593C213.369 885.872 214.116 883.497 215.61 881.469C217.158 879.388 219.292 877.787 222.014 876.667C224.735 875.546 227.857 874.986 231.379 874.986C233.14 874.986 234.928 875.119 236.742 875.386C238.556 875.653 240.13 876.08 241.465 876.667V874.425C241.465 871.757 240.664 869.703 239.063 868.262C237.516 866.821 235.194 866.101 232.099 866.101C229.805 866.101 227.617 866.501 225.536 867.301C223.455 868.102 221.267 869.276 218.972 870.823L215.53 863.78C218.305 861.965 221.133 860.604 224.015 859.697C226.95 858.79 230.018 858.337 233.22 858.337C239.197 858.337 243.839 859.831 247.148 862.819C250.51 865.807 252.19 870.076 252.19 875.626V888.993C252.19 890.114 252.377 890.914 252.751 891.395C253.178 891.875 253.845 892.168 254.752 892.275V901C253.791 901.16 252.911 901.293 252.11 901.4C251.363 901.507 250.723 901.56 250.189 901.56C248.055 901.56 246.427 901.08 245.307 900.12C244.239 899.159 243.572 897.985 243.306 896.598L243.065 894.436C241.251 896.784 238.983 898.599 236.262 899.879C233.54 901.16 230.765 901.8 227.937 901.8C225.162 901.8 222.654 901.24 220.413 900.12C218.225 898.946 216.491 897.371 215.21 895.397C213.983 893.369 213.369 891.101 213.369 888.593ZM239.463 890.754C240.05 890.114 240.531 889.474 240.904 888.833C241.278 888.193 241.465 887.606 241.465 887.072V882.83C240.184 882.296 238.796 881.896 237.302 881.629C235.808 881.309 234.394 881.149 233.06 881.149C230.285 881.149 227.99 881.763 226.176 882.99C224.415 884.164 223.535 885.738 223.535 887.713C223.535 888.78 223.828 889.794 224.415 890.754C225.002 891.715 225.856 892.489 226.977 893.076C228.097 893.663 229.431 893.956 230.979 893.956C232.58 893.956 234.154 893.663 235.701 893.076C237.249 892.435 238.503 891.662 239.463 890.754ZM301.195 901H290.469V877.467C290.469 874.105 289.882 871.651 288.708 870.103C287.534 868.555 285.906 867.782 283.825 867.782C282.385 867.782 280.917 868.155 279.423 868.902C277.982 869.649 276.675 870.69 275.501 872.024C274.327 873.305 273.473 874.799 272.939 876.507V901H262.213V859.057H271.899V866.821C272.966 865.007 274.327 863.486 275.981 862.259C277.635 860.978 279.53 860.017 281.664 859.377C283.852 858.683 286.147 858.337 288.548 858.337C291.163 858.337 293.297 858.817 294.951 859.777C296.659 860.684 297.94 861.939 298.794 863.539C299.701 865.087 300.314 866.848 300.635 868.822C301.008 870.797 301.195 872.798 301.195 874.826V901ZM307.079 916.689C305.105 916.689 303.211 916.368 301.396 915.728C299.582 915.141 297.928 914.207 296.434 912.927L301.076 905.643C301.663 906.283 302.383 906.736 303.237 907.003C304.091 907.27 304.945 907.404 305.799 907.404C306.759 907.404 307.613 907.163 308.36 906.683C309.161 906.256 309.774 905.643 310.201 904.842C310.681 904.042 310.922 903.135 310.922 902.121V859.057H321.647V901.32C321.647 904.308 320.98 906.977 319.646 909.325C318.366 911.673 316.631 913.487 314.443 914.768C312.309 916.048 309.854 916.689 307.079 916.689ZM310.922 853.214V842.568H321.647V853.214H310.922ZM328.511 888.593C328.511 885.872 329.258 883.497 330.752 881.469C332.299 879.388 334.434 877.787 337.155 876.667C339.877 875.546 342.999 874.986 346.52 874.986C348.281 874.986 350.069 875.119 351.883 875.386C353.698 875.653 355.272 876.08 356.606 876.667V874.425C356.606 871.757 355.806 869.703 354.205 868.262C352.657 866.821 350.336 866.101 347.241 866.101C344.946 866.101 342.758 866.501 340.677 867.301C338.596 868.102 336.408 869.276 334.114 870.823L330.672 863.78C333.447 861.965 336.275 860.604 339.156 859.697C342.091 858.79 345.16 858.337 348.361 858.337C354.338 858.337 358.981 859.831 362.289 862.819C365.651 865.807 367.332 870.076 367.332 875.626V888.993C367.332 890.114 367.519 890.914 367.892 891.395C368.319 891.875 368.986 892.168 369.893 892.275V901C368.933 901.16 368.052 901.293 367.252 901.4C366.505 901.507 365.864 901.56 365.331 901.56C363.196 901.56 361.569 901.08 360.448 900.12C359.381 899.159 358.714 897.985 358.447 896.598L358.207 894.436C356.393 896.784 354.125 898.599 351.403 899.879C348.682 901.16 345.907 901.8 343.079 901.8C340.304 901.8 337.796 901.24 335.554 900.12C333.367 898.946 331.632 897.371 330.352 895.397C329.124 893.369 328.511 891.101 328.511 888.593ZM354.605 890.754C355.192 890.114 355.672 889.474 356.046 888.833C356.419 888.193 356.606 887.606 356.606 887.072V882.83C355.325 882.296 353.938 881.896 352.444 881.629C350.95 881.309 349.535 881.149 348.201 881.149C345.427 881.149 343.132 881.763 341.318 882.99C339.557 884.164 338.676 885.738 338.676 887.713C338.676 888.78 338.97 889.794 339.557 890.754C340.144 891.715 340.997 892.489 342.118 893.076C343.239 893.663 344.573 893.956 346.12 893.956C347.721 893.956 349.295 893.663 350.843 893.076C352.39 892.435 353.644 891.662 354.605 890.754ZM416.336 901H405.61V877.467C405.61 874.105 405.023 871.651 403.849 870.103C402.676 868.555 401.048 867.782 398.967 867.782C397.526 867.782 396.059 868.155 394.564 868.902C393.124 869.649 391.816 870.69 390.642 872.024C389.468 873.305 388.614 874.799 388.081 876.507V901H377.355V859.057H387.04V866.821C388.107 865.007 389.468 863.486 391.122 862.259C392.777 860.978 394.671 860.017 396.806 859.377C398.993 858.683 401.288 858.337 403.689 858.337C406.304 858.337 408.439 858.817 410.093 859.777C411.801 860.684 413.081 861.939 413.935 863.539C414.842 865.087 415.456 866.848 415.776 868.822C416.15 870.797 416.336 872.798 416.336 874.826V901ZM442.072 901.24C439.297 901.24 436.735 900.707 434.388 899.639C432.093 898.519 430.092 896.971 428.384 894.997C426.73 893.022 425.449 890.754 424.542 888.193C423.635 885.632 423.181 882.91 423.181 880.028C423.181 876.987 423.662 874.159 424.622 871.544C425.583 868.929 426.917 866.634 428.624 864.66C430.385 862.632 432.44 861.085 434.788 860.017C437.189 858.897 439.831 858.337 442.712 858.337C445.967 858.337 448.822 859.084 451.277 860.578C453.731 862.019 455.759 863.966 457.36 866.421V859.057H466.725V898.999C466.725 903.161 465.711 906.71 463.684 909.645C461.709 912.633 458.961 914.901 455.439 916.448C451.917 918.049 447.915 918.85 443.432 918.85C438.897 918.85 435.055 918.076 431.906 916.529C428.758 915.034 426.063 912.9 423.822 910.125L429.665 904.442C431.266 906.416 433.267 907.964 435.668 909.084C438.123 910.205 440.711 910.765 443.432 910.765C445.727 910.765 447.808 910.338 449.676 909.485C451.597 908.684 453.118 907.404 454.238 905.643C455.412 903.935 455.999 901.72 455.999 898.999V893.716C454.612 896.117 452.638 897.985 450.076 899.319C447.568 900.6 444.9 901.24 442.072 901.24ZM445.674 892.675C446.848 892.675 447.968 892.489 449.036 892.115C450.103 891.742 451.09 891.235 451.997 890.594C452.904 889.954 453.705 889.207 454.399 888.353C455.092 887.446 455.626 886.539 455.999 885.632V875.626C455.359 873.972 454.452 872.531 453.278 871.304C452.157 870.076 450.877 869.142 449.436 868.502C448.048 867.808 446.581 867.462 445.033 867.462C443.379 867.462 441.885 867.808 440.551 868.502C439.217 869.196 438.07 870.183 437.109 871.464C436.148 872.691 435.401 874.079 434.868 875.626C434.388 877.12 434.147 878.694 434.147 880.349C434.147 882.056 434.441 883.657 435.028 885.151C435.615 886.645 436.415 887.953 437.429 889.073C438.496 890.194 439.724 891.075 441.111 891.715C442.552 892.355 444.073 892.675 445.674 892.675ZM541.55 901H530.824V877.467C530.824 874.159 530.237 871.731 529.063 870.183C527.942 868.582 526.368 867.782 524.34 867.782C522.259 867.782 520.258 868.609 518.337 870.263C516.469 871.864 515.135 873.972 514.335 876.587V901H503.609V877.467C503.609 874.105 503.022 871.651 501.848 870.103C500.727 868.555 499.153 867.782 497.125 867.782C495.044 867.782 493.043 868.582 491.122 870.183C489.254 871.784 487.92 873.892 487.12 876.507V901H476.394V859.057H486.079V866.821C487.68 864.1 489.814 862.019 492.483 860.578C495.151 859.084 498.219 858.337 501.688 858.337C505.156 858.337 507.851 859.19 509.772 860.898C511.747 862.606 513.001 864.713 513.534 867.221C515.242 864.34 517.403 862.152 520.018 860.658C522.686 859.11 525.674 858.337 528.983 858.337C531.597 858.337 533.705 858.817 535.306 859.777C536.96 860.684 538.241 861.939 539.148 863.539C540.055 865.087 540.669 866.848 540.989 868.822C541.363 870.797 541.55 872.798 541.55 874.826V901ZM550.488 885.311V859.057H561.213V882.99C561.213 886.192 561.8 888.62 562.974 890.274C564.148 891.875 565.883 892.675 568.177 892.675C569.565 892.675 570.925 892.409 572.26 891.875C573.647 891.288 574.901 890.434 576.022 889.314C577.196 888.193 578.183 886.779 578.983 885.071V859.057H589.709V888.993C589.709 890.114 589.896 890.914 590.269 891.395C590.696 891.875 591.363 892.168 592.271 892.275V901C591.203 901.16 590.296 901.267 589.549 901.32C588.855 901.427 588.215 901.48 587.628 901.48C585.707 901.48 584.133 901.053 582.905 900.2C581.731 899.292 581.038 898.065 580.824 896.518L580.584 893.156C578.716 895.984 576.315 898.145 573.38 899.639C570.445 901.08 567.217 901.8 563.695 901.8C559.372 901.8 556.091 900.413 553.849 897.638C551.608 894.81 550.488 890.701 550.488 885.311ZM620.638 901V844.249H631.684V871.224L655.537 844.169H667.704L645.932 869.383L669.065 901H656.578L638.888 876.507L631.684 884.031V901H620.638ZM689.699 901.8C686.284 901.8 683.216 901.24 680.494 900.12C677.773 898.946 675.451 897.345 673.53 895.317C671.663 893.289 670.222 890.968 669.208 888.353C668.194 885.738 667.687 882.99 667.687 880.109C667.687 877.174 668.194 874.399 669.208 871.784C670.222 869.169 671.663 866.848 673.53 864.82C675.451 862.792 677.773 861.218 680.494 860.098C683.216 858.924 686.284 858.337 689.699 858.337C693.114 858.337 696.156 858.924 698.824 860.098C701.546 861.218 703.867 862.792 705.788 864.82C707.709 866.848 709.15 869.169 710.11 871.784C711.124 874.399 711.631 877.174 711.631 880.109C711.631 882.99 711.124 885.738 710.11 888.353C709.15 890.968 707.709 893.289 705.788 895.317C703.92 897.345 701.626 898.946 698.904 900.12C696.183 901.24 693.114 901.8 689.699 901.8ZM678.733 880.109C678.733 882.563 679.213 884.751 680.174 886.672C681.134 888.54 682.442 890.007 684.096 891.075C685.75 892.142 687.618 892.675 689.699 892.675C691.727 892.675 693.568 892.142 695.222 891.075C696.876 889.954 698.184 888.46 699.144 886.592C700.158 884.671 700.665 882.483 700.665 880.028C700.665 877.627 700.158 875.466 699.144 873.545C698.184 871.624 696.876 870.13 695.222 869.062C693.568 867.995 691.727 867.462 689.699 867.462C687.618 867.462 685.75 868.022 684.096 869.142C682.442 870.21 681.134 871.704 680.174 873.625C679.213 875.493 678.733 877.654 678.733 880.109ZM734.319 901.8C730.744 901.8 727.329 901.213 724.074 900.039C720.819 898.865 718.017 897.131 715.669 894.837L719.511 887.873C722.019 889.901 724.474 891.395 726.875 892.355C729.33 893.316 731.678 893.796 733.919 893.796C736 893.796 737.655 893.422 738.882 892.675C740.163 891.928 740.803 890.808 740.803 889.314C740.803 888.3 740.456 887.526 739.762 886.992C739.069 886.405 738.055 885.898 736.721 885.471C735.44 885.045 733.866 884.564 731.998 884.031C728.903 883.017 726.315 882.03 724.234 881.069C722.153 880.109 720.578 878.908 719.511 877.467C718.497 875.973 717.99 874.079 717.99 871.784C717.99 869.009 718.684 866.634 720.072 864.66C721.512 862.632 723.487 861.058 725.995 859.937C728.556 858.817 731.544 858.256 734.96 858.256C737.948 858.256 740.776 858.737 743.444 859.697C746.112 860.604 748.54 862.099 750.728 864.18L746.406 870.983C744.271 869.329 742.244 868.129 740.323 867.382C738.402 866.581 736.454 866.181 734.479 866.181C733.359 866.181 732.292 866.314 731.278 866.581C730.317 866.848 729.517 867.301 728.876 867.942C728.289 868.529 727.996 869.383 727.996 870.503C727.996 871.517 728.263 872.318 728.796 872.905C729.383 873.438 730.237 873.918 731.358 874.345C732.532 874.772 733.946 875.253 735.6 875.786C738.962 876.747 741.79 877.734 744.085 878.748C746.433 879.762 748.194 881.016 749.368 882.51C750.542 883.951 751.129 885.952 751.129 888.513C751.129 892.675 749.608 895.931 746.566 898.279C743.524 900.626 739.442 901.8 734.319 901.8ZM777.794 901.8C774.379 901.8 771.311 901.24 768.589 900.12C765.868 898.946 763.547 897.345 761.626 895.317C759.758 893.289 758.317 890.968 757.303 888.353C756.289 885.738 755.782 882.99 755.782 880.109C755.782 877.174 756.289 874.399 757.303 871.784C758.317 869.169 759.758 866.848 761.626 864.82C763.547 862.792 765.868 861.218 768.589 860.098C771.311 858.924 774.379 858.337 777.794 858.337C781.21 858.337 784.251 858.924 786.919 860.098C789.641 861.218 791.962 862.792 793.883 864.82C795.804 866.848 797.245 869.169 798.206 871.784C799.22 874.399 799.727 877.174 799.727 880.109C799.727 882.99 799.22 885.738 798.206 888.353C797.245 890.968 795.804 893.289 793.883 895.317C792.016 897.345 789.721 898.946 787 900.12C784.278 901.24 781.21 901.8 777.794 901.8ZM766.828 880.109C766.828 882.563 767.309 884.751 768.269 886.672C769.23 888.54 770.537 890.007 772.191 891.075C773.846 892.142 775.713 892.675 777.794 892.675C779.822 892.675 781.663 892.142 783.318 891.075C784.972 889.954 786.279 888.46 787.24 886.592C788.254 884.671 788.761 882.483 788.761 880.028C788.761 877.627 788.254 875.466 787.24 873.545C786.279 871.624 784.972 870.13 783.318 869.062C781.663 867.995 779.822 867.462 777.794 867.462C775.713 867.462 773.846 868.022 772.191 869.142C770.537 870.21 769.23 871.704 768.269 873.625C767.309 875.493 766.828 877.654 766.828 880.109ZM845.948 901H835.222V877.467C835.222 874.105 834.635 871.651 833.461 870.103C832.287 868.555 830.659 867.782 828.578 867.782C827.137 867.782 825.67 868.155 824.176 868.902C822.735 869.649 821.427 870.69 820.253 872.024C819.079 873.305 818.226 874.799 817.692 876.507V901H806.966V859.057H816.651V866.821C817.719 865.007 819.079 863.486 820.734 862.259C822.388 860.978 824.282 860.017 826.417 859.377C828.605 858.683 830.899 858.337 833.301 858.337C835.915 858.337 838.05 858.817 839.704 859.777C841.412 860.684 842.692 861.939 843.546 863.539C844.453 865.087 845.067 866.848 845.387 868.822C845.761 870.797 845.948 872.798 845.948 874.826V901ZM871.683 901.24C868.908 901.24 866.347 900.707 863.999 899.639C861.704 898.519 859.703 896.971 857.995 894.997C856.341 893.022 855.06 890.754 854.153 888.193C853.246 885.632 852.793 882.91 852.793 880.028C852.793 876.987 853.273 874.159 854.233 871.544C855.194 868.929 856.528 866.634 858.236 864.66C859.997 862.632 862.051 861.085 864.399 860.017C866.8 858.897 869.442 858.337 872.323 858.337C875.578 858.337 878.433 859.084 880.888 860.578C883.343 862.019 885.37 863.966 886.971 866.421V859.057H896.336V898.999C896.336 903.161 895.323 906.71 893.295 909.645C891.32 912.633 888.572 914.901 885.05 916.448C881.528 918.049 877.526 918.85 873.044 918.85C868.508 918.85 864.666 918.076 861.517 916.529C858.369 915.034 855.674 912.9 853.433 910.125L859.276 904.442C860.877 906.416 862.878 907.964 865.279 909.084C867.734 910.205 870.322 910.765 873.044 910.765C875.338 910.765 877.419 910.338 879.287 909.485C881.208 908.684 882.729 907.404 883.85 905.643C885.024 903.935 885.611 901.72 885.611 898.999V893.716C884.223 896.117 882.249 897.985 879.687 899.319C877.179 900.6 874.511 901.24 871.683 901.24ZM875.285 892.675C876.459 892.675 877.58 892.489 878.647 892.115C879.714 891.742 880.701 891.235 881.608 890.594C882.516 889.954 883.316 889.207 884.01 888.353C884.703 887.446 885.237 886.539 885.611 885.632V875.626C884.97 873.972 884.063 872.531 882.889 871.304C881.768 870.076 880.488 869.142 879.047 868.502C877.66 867.808 876.192 867.462 874.645 867.462C872.99 867.462 871.496 867.808 870.162 868.502C868.828 869.196 867.681 870.183 866.72 871.464C865.76 872.691 865.013 874.079 864.479 875.626C863.999 877.12 863.759 878.694 863.759 880.349C863.759 882.056 864.052 883.657 864.639 885.151C865.226 886.645 866.027 887.953 867.04 889.073C868.108 890.194 869.335 891.075 870.722 891.715C872.163 892.355 873.684 892.675 875.285 892.675ZM908.086 879.628V843.608H918.812V879.628H908.086ZM908.086 901V888.913H918.812V901H908.086Z" fill="#01AAE8"/>
</svg>
