<svg width="680" height="587" viewBox="0 0 680 587" fill="none" xmlns="http://www.w3.org/2000/svg">
<path d="M558.373 429.626C558.373 429.626 530.146 412.892 545.852 393.334C561.559 373.777 523.493 361.7 543.373 340.913C563.252 320.126 533.533 309.218 544.844 291.072C556.155 272.927 540.106 248.087 557.728 238.47C575.35 228.852 576.7 269.217 590.169 278.955C603.637 288.693 581.479 315.569 592.951 332.707C604.423 349.845 575.571 377.427 586.902 386.016C598.234 394.605 576.297 422.146 558.373 429.626Z" fill="#E0E0E0"/>
<path d="M553.837 440.312C553.837 440.312 577.386 352.365 568.474 264.7C568.474 264.7 586.439 301.899 558.857 443.598L553.837 440.312Z" fill="#F0F0F0"/>
<path d="M505.347 432.066C505.347 432.066 472.604 432.832 475.467 407.972C478.33 383.112 439.719 393.113 445.506 364.886C451.292 336.659 420.324 343.252 420.263 321.88C420.203 300.508 393.427 287.967 403.266 270.447C413.105 252.926 435.667 286.415 452.24 287.544C468.813 288.673 464.337 323.17 483.149 331.618C501.96 340.066 492.161 378.737 506.375 380.007C520.589 381.277 516.577 416.198 505.347 432.066Z" fill="#F0F0F0"/>
<path d="M507.182 443.518C507.182 443.518 480.447 356.498 426.332 286.939C426.332 286.939 461.313 308.916 513.17 443.639L507.182 443.518Z" fill="#E0E0E0"/>
<path d="M538.493 431.783C538.493 431.783 507 422.771 517.142 399.887C527.283 377.003 487.463 374.967 501.375 349.764C515.287 324.562 483.774 321.537 490.104 301.174C496.435 280.81 474.58 260.85 489.177 247.039C503.774 233.227 515.388 271.918 530.852 277.927C546.316 283.935 531.779 315.549 547.224 329.199C562.668 342.849 541.82 376.862 555.006 382.265C568.192 387.669 553.917 419.989 538.493 431.783Z" fill="#EBEBEB"/>
<path d="M536.739 443.256C536.739 443.256 537.122 352.224 506.194 269.721C506.194 269.721 533.03 301.113 542.486 445.131L536.739 443.256Z" fill="#E0E0E0"/>
<path d="M575.047 433.437C575.047 433.437 607.79 433.719 604.565 408.899C601.339 384.08 640.07 393.455 633.88 365.309C627.69 337.163 658.74 343.312 658.478 321.92C658.216 300.528 684.809 287.645 674.728 270.265C664.647 252.885 642.57 286.717 626.017 288.068C609.464 289.419 614.444 323.876 595.774 332.586C577.104 341.296 587.447 379.826 573.273 381.277C559.099 382.729 563.494 417.831 575.047 433.437Z" fill="#E6E6E6"/>
<path d="M573.273 445.01C573.273 445.01 598.717 357.587 651.804 287.262C651.804 287.262 617.166 309.742 567.285 445.211L573.273 445.01Z" fill="#E0E0E0"/>
<path d="M557.748 450.05H517.424H485.145L503.169 549.671H572.023L590.048 450.05H557.748Z" fill="#EBEBEB"/>
<path d="M585.289 476.281L590.048 450.05H557.748H517.424H485.145L489.883 476.281H585.289Z" fill="#E0E0E0"/>
<path d="M595.633 436.925H479.54C475.386 436.925 472.019 440.292 472.019 444.445V455.635C472.019 459.789 475.386 463.156 479.54 463.156H595.633C599.786 463.156 603.153 459.789 603.153 455.635V444.445C603.153 440.292 599.786 436.925 595.633 436.925Z" fill="#EBEBEB"/>
<path d="M339.987 586.647C527.756 586.647 679.974 576.429 679.974 563.823C679.974 551.218 527.756 541 339.987 541C152.217 541 0 551.218 0 563.823C0 576.429 152.217 586.647 339.987 586.647Z" fill="#F5F5F5"/>
<path d="M184.928 223.524C176.193 275.271 170.337 327.464 167.387 379.86L159.14 379.175C162.18 326.428 168.157 273.892 177.044 221.81C181.984 188.2 215.634 161.949 247.773 164.126C255.096 164.674 262.21 166.827 268.607 170.434C275.005 174.04 280.53 179.012 284.79 184.994C289.028 191.142 291.943 198.104 293.348 205.437C294.754 212.771 294.62 220.317 292.956 227.596C284.29 274.545 278.232 321.938 274.81 369.557L266.604 369.033C270.03 321.049 276.121 273.292 284.851 225.983C286.258 219.804 286.361 213.4 285.153 207.178C283.945 200.957 281.452 195.056 277.834 189.853C276.849 188.478 275.771 187.171 274.608 185.942C261.126 247.256 252.203 309.485 247.914 372.118L239.667 371.513C244.082 307.04 253.465 243.003 267.733 179.974C262.451 176.462 256.463 174.15 250.192 173.199C235.116 239.59 225.367 307.078 221.038 375.021L212.791 374.396C217.163 306.527 226.898 239.11 241.906 172.776C235.006 172.881 228.196 174.347 221.864 177.09C207.469 243.066 198.194 310.056 194.121 377.461L185.875 376.796C189.803 311.34 198.625 246.27 212.267 182.131C205.204 186.885 199.152 192.991 194.46 200.095C189.768 207.199 186.528 215.162 184.928 223.524Z" fill="#407BFF"/>
<path opacity="0.6" d="M184.928 223.524C176.193 275.271 170.337 327.464 167.387 379.86L159.14 379.175C162.18 326.428 168.157 273.892 177.044 221.81C181.984 188.2 215.634 161.949 247.773 164.126C255.096 164.674 262.21 166.827 268.607 170.434C275.005 174.04 280.53 179.012 284.79 184.994C289.028 191.142 291.943 198.104 293.348 205.437C294.754 212.771 294.62 220.317 292.956 227.596C284.29 274.545 278.232 321.938 274.81 369.557L266.604 369.033C270.03 321.049 276.121 273.292 284.851 225.983C286.258 219.804 286.361 213.4 285.153 207.178C283.945 200.957 281.452 195.056 277.834 189.853C276.849 188.478 275.771 187.171 274.608 185.942C261.126 247.256 252.203 309.485 247.914 372.118L239.667 371.513C244.082 307.04 253.465 243.003 267.733 179.974C262.451 176.462 256.463 174.15 250.192 173.199C235.116 239.59 225.367 307.078 221.038 375.021L212.791 374.396C217.163 306.527 226.898 239.11 241.906 172.776C235.006 172.881 228.196 174.347 221.864 177.09C207.469 243.066 198.194 310.056 194.121 377.461L185.875 376.796C189.803 311.34 198.625 246.27 212.267 182.131C205.204 186.885 199.152 192.991 194.46 200.095C189.768 207.199 186.528 215.162 184.928 223.524Z" fill="white"/>
<path d="M268.681 566.5H278.742L270.495 373.912H257.652L268.681 566.5Z" fill="#407BFF"/>
<path d="M201.279 566.5H211.34L205.876 373.912H193.033L201.279 566.5Z" fill="#407BFF"/>
<path d="M148.999 566.5H159.1L167.346 373.912H154.503L148.999 566.5Z" fill="#407BFF"/>
<path d="M81.5969 566.5H91.6981L102.686 373.912H89.8432L81.5969 566.5Z" fill="#407BFF"/>
<g opacity="0.6">
<path d="M268.681 566.5H278.741L270.495 373.912H257.652L268.681 566.5Z" fill="white"/>
<path d="M201.279 566.5H211.34L205.876 373.912H193.033L201.279 566.5Z" fill="white"/>
<path d="M148.999 566.5H159.1L167.346 373.912H154.503L148.999 566.5Z" fill="white"/>
<path d="M81.5969 566.5H91.6981L102.686 373.912H89.8432L81.5969 566.5Z" fill="white"/>
</g>
<path d="M85.2866 373.912H275.153C275.153 368.565 273.029 363.437 269.247 359.656C265.466 355.875 260.338 353.75 254.991 353.75H105.449C100.101 353.75 94.9731 355.875 91.1919 359.656C87.4108 363.437 85.2866 368.565 85.2866 373.912Z" fill="#263238"/>
<path d="M189.807 366.573H77V381.231H189.807V366.573Z" fill="#407BFF"/>
<path opacity="0.6" d="M189.807 366.573H77V381.231H189.807V366.573Z" fill="white"/>
<path d="M283.379 366.573H189.807V381.231H283.379V366.573Z" fill="#407BFF"/>
<path opacity="0.3" d="M283.379 366.573H189.807V381.231H283.379V366.573Z" fill="white"/>
<path d="M427.993 145.147C440.135 155.08 455.678 169.394 468.647 177.809L468.916 177.982C468.916 177.982 469.223 178.309 470.299 178.251C480.021 176.176 489.339 167.53 497.485 160.959C498.356 160.125 499.503 159.639 500.708 159.595C501.913 159.551 503.092 159.951 504.022 160.719C504.952 161.487 505.566 162.57 505.75 163.762C505.933 164.954 505.672 166.172 505.016 167.184C500.27 174.758 494.394 181.561 487.591 187.358C483.618 190.822 478.946 193.391 473.892 194.889C469.573 196.093 464.969 195.739 460.885 193.89L458.791 192.814C442.614 183.803 428.742 172.103 414.928 159.999C405.591 151.084 417.925 137.059 427.954 145.186L427.993 145.147Z" fill="#EBC0BB"/>
<path d="M426.648 174.216C430.482 175.914 434.193 177.879 437.753 180.095C446.898 185.513 457.542 192.507 457.542 192.507L466.264 173.89C449.568 156.752 424.515 143.265 424.515 143.265C424.515 143.265 423.535 149.028 423.093 155.465C422.517 163.496 422.767 172.794 426.648 174.216Z" fill="#407BFF"/>
<path d="M456.293 192.199L466.264 170.623L471.26 177.79L461.039 195.696L456.293 192.199Z" fill="#407BFF"/>
<path opacity="0.6" d="M456.293 192.199L466.264 170.623L471.26 177.79L461.039 195.696L456.293 192.199Z" fill="white"/>
<path opacity="0.2" d="M426.648 170.086C430.457 171.537 434.167 173.237 437.753 175.177C435.696 166.557 431.042 158.778 424.419 152.89C423.959 153.177 423.516 153.492 423.093 153.832C422.517 160.787 422.767 168.856 426.648 170.086Z" fill="black"/>
<path d="M377.271 245.342C377.271 245.342 378.193 260.942 385.802 288.263C390.573 305.171 396.38 321.77 403.189 337.966C407.032 347.111 411.412 356.794 416.331 367.016C418.598 371.665 420.999 376.392 423.535 381.233C426.456 464.001 472.893 548.134 472.893 548.134C475.467 549.46 484.42 547.999 484.42 545.386C477.542 534.474 464.016 428.439 455.294 378.14C454.756 371.3 453.968 363.98 453.008 356.41C450.452 336.122 446.687 314.027 443.017 294.603C437.253 264.016 431.758 240.039 431.758 240.039L416.388 241.518L377.271 245.342Z" fill="#EEC1BB"/>
<path d="M358.981 359.907C360.262 368.783 361.856 378.3 363.765 388.457C347.165 443.809 381.287 551.765 381.287 551.765C387.05 552.899 392.161 552.149 394.735 550.228C388.299 517.682 392.929 433.031 397.925 382.482C398.367 377.909 398.924 372.876 399.539 367.458C400.576 358.351 401.806 348.245 403.112 337.908C405.302 320.521 407.781 302.211 410.01 286.034C412.738 266.418 415.12 249.837 416.331 241.499C416.868 237.829 417.157 235.735 417.157 235.735L369.259 240.923C369.259 240.923 357.079 254.583 355.234 297.235C354.595 318.196 355.849 339.172 358.981 359.907Z" fill="#EEC1BB"/>
<path opacity="0.2" d="M358.981 359.907C372.083 364.345 385.74 366.932 399.558 367.592C400.595 358.485 401.825 348.379 403.131 338.043C406.974 347.188 411.355 356.871 416.273 367.093C429.071 365.91 441.519 362.263 452.931 356.353C450.376 336.064 446.61 313.969 442.94 294.545C437.866 291.576 432.383 289.369 426.667 287.994C421.22 286.712 415.643 286.068 410.048 286.073C401.901 286.026 393.768 286.766 385.763 288.282C375.314 290.217 365.095 293.237 355.273 297.293C354.624 318.233 355.865 339.189 358.981 359.907Z" fill="black"/>
<path d="M358.712 144.686C358.712 144.686 360.844 152.602 363.15 165.82C363.745 169.086 364.341 172.718 364.898 176.599C365.302 179.423 365.686 182.362 366.07 185.475C366.493 188.991 366.896 192.699 367.261 196.522C368.668 211.207 369.2 225.963 368.856 240.711H431.931C431.931 240.711 441.883 166.935 425.457 143.149C425.457 143.303 393.122 128.067 358.712 144.686Z" fill="#407BFF"/>
<path opacity="0.2" d="M363.15 165.897C363.745 169.163 364.341 172.794 364.898 176.675C365.302 179.5 365.686 182.439 366.07 185.552C368.792 176.129 368.725 166.119 365.878 156.733L363.15 165.897Z" fill="black"/>
<path d="M391.335 132.582C371.546 132.582 369.067 148.855 369.067 148.855L378.309 144.878L405.495 163.054L412.161 144.705L420.538 146.262C420.538 146.262 408.511 132.601 391.335 132.582Z" fill="#407BFF"/>
<path opacity="0.6" d="M391.335 132.582C371.546 132.582 369.067 148.855 369.067 148.855L378.309 144.878L405.495 163.054L412.161 144.705L420.538 146.262C420.538 146.262 408.511 132.601 391.335 132.582Z" fill="white"/>
<path d="M379.077 141.593L404.726 160.806C404.726 160.652 408.703 141.593 408.703 141.593C402.651 140.267 400.173 137.328 399.519 133.793C399.167 130.9 399.469 127.965 400.403 125.205L386.205 113.965L382.363 110.949C384.149 119.71 385.821 135.752 379.077 141.593Z" fill="#EEC1BB"/>
<path opacity="0.2" d="M386.09 120.44C386.628 125.954 393.391 131.698 399.539 133.793C399.187 130.9 399.489 127.965 400.422 125.205L386.224 113.965C385.892 116.108 385.846 118.285 386.09 120.44Z" fill="black"/>
<path d="M428.204 91.4479L426.859 90.9676L431.22 78.9212C430.603 78.2888 429.928 77.7163 429.203 77.2113L430.029 76.0393C431.008 76.6922 431.882 77.4888 432.623 78.4025L432.815 78.6906L428.204 91.4479Z" fill="#407BFF"/>
<path d="M425.303 105.358C425.303 105.358 437.83 79.8626 412.642 64.9152C387.454 49.9677 369.221 81.1883 371.757 96.8467C372.833 103.59 375.369 111.813 381.863 115.867C384.476 117.481 384.668 110.103 384.668 110.103C384.668 110.103 409.145 118.768 425.303 105.358Z" fill="#263238"/>
<path d="M383.669 88.4123C381.421 103.917 380.153 110.411 386.09 120.229C395.005 135.003 414.064 135.31 420.788 121.035C426.821 108.163 429.472 84.9924 416.1 75.0402C413.302 72.8086 409.957 71.3664 406.414 70.8631C402.87 70.3599 399.257 70.814 395.948 72.1783C392.639 73.5427 389.755 75.7675 387.596 78.6221C385.437 81.4767 384.081 84.8569 383.669 88.4123Z" fill="#EEC1BB"/>
<path d="M399.788 82.1681C388.261 89.8532 400.634 107.356 384.418 101.035C368.203 94.7141 382.824 73.6761 394.428 71.7357C406.033 69.7952 399.788 82.1681 399.788 82.1681Z" fill="#263238"/>
<path d="M416.446 103.936C416.986 107.177 417.942 110.335 419.289 113.331C418.556 113.635 417.762 113.767 416.97 113.717C416.177 113.667 415.406 113.437 414.717 113.043L416.446 103.936Z" fill="#D4827D"/>
<path d="M411.854 89.2961C411.756 89.2824 411.655 89.289 411.56 89.3155C411.464 89.3419 411.374 89.3876 411.297 89.4498C410.587 90.0557 409.738 90.4763 408.827 90.6741C407.915 90.8719 406.968 90.8407 406.071 90.5833C405.979 90.5508 405.881 90.5375 405.784 90.5443C405.687 90.5512 405.592 90.5779 405.505 90.623C405.419 90.668 405.343 90.7304 405.281 90.8062C405.22 90.882 405.175 90.9696 405.149 91.0636C405.098 91.2622 405.124 91.4724 405.219 91.6535C405.315 91.8346 405.475 91.9735 405.668 92.0435C406.795 92.3921 407.992 92.4499 409.148 92.2114C410.303 91.9729 411.38 91.4459 412.277 90.6794C412.418 90.5357 412.496 90.3426 412.496 90.1414C412.496 89.9403 412.418 89.7471 412.277 89.6035C412.173 89.458 412.024 89.3501 411.854 89.2961Z" fill="#263238"/>
<path d="M422.536 91.2173C422.357 91.1494 422.159 91.1494 421.979 91.2173C421.801 91.3148 421.669 91.4785 421.612 91.6728C421.554 91.8671 421.576 92.0763 421.672 92.2548C422.177 93.3823 422.936 94.3781 423.889 95.1645C424.842 95.951 425.964 96.5069 427.167 96.789C427.264 96.8053 427.365 96.801 427.461 96.7762C427.557 96.7515 427.647 96.707 427.724 96.6454C427.802 96.5839 427.866 96.5068 427.912 96.419C427.959 96.3312 427.986 96.2347 427.993 96.1358C428.002 95.9329 427.94 95.7332 427.817 95.5716C427.694 95.41 427.518 95.2969 427.32 95.252C426.369 95.0191 425.485 94.5704 424.735 93.9407C423.986 93.311 423.391 92.5172 422.997 91.6208C422.901 91.4322 422.736 91.2877 422.536 91.2173Z" fill="#263238"/>
<path d="M406.609 75.5398C406.609 75.5398 399.539 87.4709 388.972 90.3144C378.405 93.1579 377.675 87.9704 377.675 87.9704C377.675 87.9704 378.462 72.7924 392.391 69.6415C392.391 69.6415 394.447 65.1458 406.57 66.164C418.694 67.1823 432.681 77.1729 428.031 91.544C425.404 89.7119 422.371 88.5449 419.193 88.1433C417.972 83.1958 415.004 78.8563 410.836 75.9241C413.624 79.1738 415.359 83.1938 415.812 87.4517C415.812 87.4517 413.084 78.6523 406.609 75.5398Z" fill="#263238"/>
<path d="M409.318 99.767L412.469 99.6517C412.469 99.6517 410.49 101.669 409.318 99.767Z" fill="#263238"/>
<path d="M409.318 99.767C408.535 100.382 407.579 100.738 406.585 100.786C405.59 100.835 404.605 100.572 403.766 100.036C403.766 100.036 406.513 102.303 408.261 101.957C408.782 101.872 409.276 101.666 409.703 101.356C410.13 101.045 410.478 100.64 410.72 100.17L409.318 99.767Z" fill="#263238"/>
<path d="M422.114 101.746L425.245 101.631C425.245 101.631 423.266 103.648 422.114 101.746Z" fill="#263238"/>
<path d="M422.114 101.746C422.114 101.746 421.268 103.667 417.925 101.957C417.925 101.957 419.289 104.282 421.038 104.013C421.559 103.928 422.052 103.722 422.479 103.412C422.906 103.101 423.255 102.695 423.497 102.226L422.114 101.746Z" fill="#263238"/>
<path d="M412.181 119.287C412.068 119.289 411.959 119.252 411.871 119.182C411.783 119.112 411.723 119.013 411.7 118.903C411.7 118.903 410.855 114.811 405.014 112.255C404.956 112.23 404.904 112.194 404.859 112.148C404.815 112.103 404.781 112.049 404.758 111.99C404.734 111.931 404.723 111.868 404.724 111.805C404.725 111.742 404.739 111.679 404.765 111.621C404.819 111.507 404.915 111.418 405.032 111.371C405.15 111.325 405.281 111.325 405.399 111.371C411.739 114.157 412.623 118.538 412.642 118.73C412.664 118.855 412.636 118.983 412.564 119.088C412.492 119.192 412.382 119.264 412.257 119.287H412.181Z" fill="#263238"/>
<path d="M406.34 73.9259C402.094 73.9259 398.866 72.1967 398.866 69.9104C398.866 67.6241 402.094 65.8757 406.34 65.8757C410.586 65.8757 413.814 67.6049 413.814 69.9104C413.814 72.2159 410.605 73.9259 406.34 73.9259ZM406.34 67.3167C402.786 67.3167 400.307 68.6808 400.307 69.9104C400.307 71.14 402.786 72.4849 406.34 72.4849C409.894 72.4849 412.373 71.1208 412.373 69.9104C412.373 68.7 409.933 67.3551 406.34 67.3551V67.3167Z" fill="#407BFF"/>
<path d="M427.224 78.4024C425.318 78.3143 423.465 77.7388 421.845 76.7309C418.156 74.6175 416.235 71.505 417.387 69.5069C418.54 67.5857 422.171 67.5857 425.86 69.7567C429.549 71.9277 431.47 75.0018 430.317 76.9807C429.978 77.4745 429.511 77.8674 428.967 78.1176C428.422 78.3679 427.82 78.4663 427.224 78.4024ZM418.636 70.237C418.021 71.2937 419.482 73.7145 422.479 75.4821C425.476 77.2496 428.377 77.4034 428.992 76.2698C429.607 75.1363 428.146 72.7923 425.149 71.0055C422.152 69.2187 419.251 69.1803 418.636 70.237Z" fill="#407BFF"/>
<path d="M417.137 71.14C416.621 70.4846 415.883 70.0404 415.062 69.8912C414.789 69.8763 414.516 69.92 414.26 70.0194C414.005 70.1188 413.774 70.2716 413.583 70.4676L412.603 69.4109C412.94 69.0775 413.343 68.8194 413.787 68.6538C414.231 68.4882 414.705 68.4188 415.178 68.4502C416.393 68.6476 417.493 69.2833 418.271 70.237L417.137 71.14Z" fill="#407BFF"/>
<path d="M385.667 98.1531L384.322 97.6536L393.775 71.2937L393.929 71.1592C395.644 70.1944 397.518 69.5438 399.462 69.238L399.731 70.6597C398.081 70.9232 396.481 71.4349 394.985 72.1775L385.667 98.1531Z" fill="#407BFF"/>
<path d="M377.463 101.976C377.619 103.466 378.086 104.906 378.834 106.204C379.582 107.501 380.594 108.627 381.805 109.508C384.879 111.564 387.684 108.182 387.877 103.917C388.049 100.074 386.666 94.3106 383.054 94.0993C379.442 93.8879 376.925 97.9802 377.463 101.976Z" fill="#EEC1BB"/>
<path d="M380.095 565.963H382.766L383.515 562.659L392.334 566.655H414.736C414.736 566.655 418.29 563.062 407.627 560.219C407.104 560.076 406.595 559.883 406.109 559.642C400.442 556.972 392.334 547.98 392.334 547.98H380.057C379.687 548.548 379.354 549.138 379.058 549.748C377.713 552.438 375.35 558.086 380.095 565.963Z" fill="#263238"/>
<path d="M379.058 549.748C380.672 547.942 388.049 555.877 393.467 558.585C398.29 560.987 403.708 562.044 406.109 559.604C400.442 556.933 391.488 545.29 391.488 545.29H381.613C381.613 545.29 379.634 548.595 379.058 549.748Z" fill="#FFC2BC"/>
<path d="M473.335 565.963H476.005L476.735 562.659L485.573 566.655H507.917C507.917 566.655 511.491 563.062 500.828 560.219C500.303 560.08 499.795 559.886 499.31 559.642C493.546 556.972 485.535 547.98 485.535 547.98H473.335C472.965 548.548 472.631 549.138 472.336 549.748C470.971 552.438 468.647 558.086 473.335 565.963Z" fill="#263238"/>
<path d="M472.316 549.748C473.93 547.942 481.308 555.877 486.707 558.585C491.548 560.987 496.966 562.044 499.368 559.604C493.604 556.933 484.747 545.29 484.747 545.29H474.872C474.872 545.29 472.893 548.595 472.316 549.748Z" fill="#FFC2BC"/>
<path d="M432.546 235.793H368.952L367.242 243.978C367.242 243.978 343.879 276.312 355.714 356.948C355.714 356.948 406.878 362.847 455.063 352.51C455.063 352.51 444.247 269.684 432.93 242.652L432.546 235.793Z" fill="#263238"/>
<path d="M387.915 242.825H366.57L367.857 236.754H387.915V242.825Z" fill="#263238"/>
<path d="M426.667 236.754H433.065L433.603 242.825H426.667V236.754Z" fill="#263238"/>
<path d="M424.554 236.754H389.99V242.844H424.554V236.754Z" fill="#263238"/>
<path opacity="0.6" d="M387.915 242.825H366.57L367.857 236.754H387.915V242.825Z" fill="white"/>
<path opacity="0.6" d="M426.667 236.754H433.065L433.603 242.825H426.667V236.754Z" fill="white"/>
<path opacity="0.6" d="M424.554 236.754H389.99V242.844H424.554V236.754Z" fill="white"/>
<path d="M405.322 243.286H414.928C415.501 243.286 415.965 242.821 415.965 242.248V237.311C415.965 236.738 415.501 236.273 414.928 236.273H405.322C404.749 236.273 404.284 236.738 404.284 237.311V242.248C404.284 242.821 404.749 243.286 405.322 243.286Z" fill="white"/>
<path d="M516.044 150.469L516.294 155.33C516.335 156.228 516.165 157.123 515.798 157.944C515.431 158.765 514.877 159.488 514.181 160.056L507.476 165.398C506.162 166.453 504.615 167.177 502.964 167.512C501.312 167.846 499.605 167.78 497.984 167.319L495.948 166.742C494.968 158.712 499.79 149.297 499.79 149.297L500.866 146.473C501.071 145.884 501.39 145.341 501.806 144.876C502.222 144.412 502.727 144.034 503.29 143.766C503.853 143.498 504.463 143.345 505.086 143.315C505.709 143.284 506.332 143.378 506.918 143.591L512.567 145.685C513.549 146.058 514.401 146.709 515.019 147.559C515.637 148.409 515.993 149.42 516.044 150.469Z" fill="#EEC1BB"/>
<path d="M363.304 166.762C354.831 175.888 344.782 186.82 336.54 196.157L337.539 194.562C337.731 194.082 337.655 193.813 337.539 193.948C337.77 199.442 341.382 204.668 344.36 209.76C348.74 216.811 353.966 223.823 358.904 230.49C359.608 231.444 359.944 232.621 359.85 233.803C359.756 234.985 359.238 236.093 358.391 236.924C357.544 237.754 356.426 238.25 355.242 238.321C354.058 238.393 352.889 238.034 351.949 237.311C348.318 234.486 345.051 231.547 341.747 228.434C334.844 222.1 328.885 214.808 324.052 206.782C320.632 200.711 317.769 191.892 322.457 185.167C330.431 173.595 339.433 162.766 349.355 152.813C358.827 144.264 371.853 157.29 363.304 166.762Z" fill="#EBC0BB"/>
<path d="M358.712 144.667C358.712 144.667 344.398 152.083 324.686 179.596L340.344 192.372L364.226 172.295C366.625 166.652 367.436 160.46 366.57 154.389C364.86 145.359 358.712 144.667 358.712 144.667Z" fill="#407BFF"/>
<path d="M342.573 191.45L323.207 176.157L320.248 184.629L338.692 195.696L342.573 191.45Z" fill="#407BFF"/>
<path opacity="0.6" d="M342.573 191.45L323.207 176.157L320.248 184.629L338.692 195.696L342.573 191.45Z" fill="white"/>
<path d="M368.453 246.168L368.837 241.326C368.898 240.427 368.748 239.525 368.397 238.694C368.047 237.863 367.506 237.126 366.819 236.542L360.268 231.047C358.974 229.968 357.442 229.214 355.797 228.846C354.153 228.479 352.445 228.509 350.815 228.934L348.759 229.472C347.588 237.464 352.199 246.994 352.199 246.994L353.217 249.857C353.41 250.45 353.719 250.999 354.126 251.472C354.532 251.945 355.029 252.333 355.586 252.613C356.143 252.894 356.75 253.061 357.373 253.106C357.995 253.15 358.62 253.071 359.211 252.873L364.975 250.952C365.957 250.579 366.809 249.928 367.427 249.078C368.045 248.229 368.401 247.217 368.453 246.168Z" fill="#EEC1BB"/>
<path d="M387.896 66.0103C387.896 66.0103 382.747 44.6458 363.15 48.4499C343.553 52.254 355.734 84.7042 351.622 96.8466C347.511 108.989 346.704 127.971 363.15 131.43C360.931 129.44 359.407 126.793 358.802 123.875C358.197 120.957 358.542 117.921 359.788 115.214C359.253 118.191 359.886 121.26 361.555 123.783C360.613 121.836 360.262 119.656 360.545 117.511C360.828 115.367 361.734 113.353 363.15 111.717C368.145 106.107 378.097 85.223 379.077 78.6906C380.057 72.1583 387.896 66.0103 387.896 66.0103Z" fill="#263238"/>
<path d="M509.623 173.722L507.731 174.056C507.084 174.171 506.417 174.023 505.879 173.647C505.34 173.27 504.973 172.695 504.859 172.047L487.107 71.6818L493.842 70.4905L511.58 170.781C511.637 171.101 511.63 171.43 511.56 171.747C511.49 172.065 511.357 172.366 511.171 172.633C510.984 172.899 510.747 173.127 510.473 173.302C510.198 173.477 509.892 173.596 509.572 173.653L509.623 173.722Z" fill="#263238"/>
<path d="M490.712 91.9941C512.759 88.0947 527.295 66.0702 523.18 42.8009C519.064 19.5316 497.855 3.8292 475.809 7.72855C453.762 11.6279 439.226 33.6524 443.341 56.9217C447.457 80.191 468.666 95.8934 490.712 91.9941Z" fill="#407BFF"/>
<path opacity="0.6" d="M490.712 91.9941C512.759 88.0947 527.295 66.0702 523.18 42.8009C519.064 19.5316 497.855 3.8292 475.809 7.72855C453.762 11.6279 439.226 33.6524 443.341 56.9217C447.457 80.191 468.666 95.8934 490.712 91.9941Z" fill="white"/>
<path d="M494.495 91.3259C516.542 87.4266 531.078 65.402 526.963 42.1328C522.847 18.8635 501.638 3.16105 479.591 7.06039C457.545 10.9597 443.008 32.9843 447.124 56.2536C451.24 79.5228 472.448 95.2253 494.495 91.3259Z" fill="#407BFF"/>
<path opacity="0.7" d="M494.495 91.3259C516.542 87.4266 531.078 65.402 526.963 42.1328C522.847 18.8635 501.638 3.16105 479.591 7.06039C457.545 10.9597 443.008 32.9843 447.124 56.2536C451.24 79.5228 472.448 95.2253 494.495 91.3259Z" fill="white"/>
<path d="M468.551 71.0248L483.325 49.8908L462.191 35.1163L465.246 30.755L486.38 45.5295L501.155 24.3956L505.516 27.4504L490.741 48.5844L511.875 63.3589L508.82 67.7202L487.687 52.9456L472.912 74.0796L468.551 71.0248Z" fill="#407BFF"/>
</svg>
