<svg width="24" height="24" viewBox="0 0 24 24" fill="none" xmlns="http://www.w3.org/2000/svg">
<path d="M7.5 3C4.4624 3 2 5.46186 2 8.49969C2 11.6835 3.8135 14.6873 6.8125 17.4372C7.8361 18.3751 8.9382 19.1981 10.0312 19.937C10.4143 20.195 10.7726 20.429 11.0938 20.624C11.2896 20.743 11.4187 20.829 11.5 20.874C11.802 21.042 12.198 21.042 12.5 20.874C12.5813 20.829 12.7104 20.743 12.9062 20.624C13.2274 20.429 13.5857 20.195 13.9688 19.937C15.0618 19.1981 16.1639 18.3751 17.1875 17.4372C20.1865 14.6873 22 11.6835 22 8.49969C22 5.46186 19.5376 3 16.5 3C14.7748 3 13.0904 3.93996 12.0312 5.31188C10.9984 3.91596 9.3199 3 7.5 3Z" fill="#01AAE8"/>
</svg>
