<svg width="24" height="24" viewBox="0 0 24 24" fill="none" xmlns="http://www.w3.org/2000/svg">
<path d="M12 3C6.5017 3 2 6.99333 2 11.9827C2 13.5517 2.4419 15.0768 3.2812 16.4112C3.7322 17.1289 3.7742 18.1499 3.0938 19.5303C2.7849 20.1571 3.2096 20.8996 3.9062 20.9655C5.2631 21.0942 6.4092 20.8667 7.9688 20.2169C9.2112 20.7 10.6155 20.9655 12 20.9655C17.4983 20.9655 22 16.9712 22 11.9827C22 6.99333 17.4983 3 12 3ZM12 4.99617C16.4428 4.99617 20 8.1521 20 11.9827C20 15.8134 16.4428 18.9693 12 18.9693C10.7214 18.9693 9.4873 18.7158 8.375 18.2208C8.1177 18.106 7.8205 18.108 7.5625 18.2208C6.6422 18.623 6.1209 18.8426 5.4375 18.9384C5.8163 17.6359 5.5381 16.2565 4.9688 15.3513C4.3266 14.3302 4 13.1705 4 11.9827C4 8.1521 7.5572 4.99617 12 4.99617Z" fill="#6B7280"/>
</svg>
