<svg width="24" height="24" viewBox="0 0 24 24" fill="none" xmlns="http://www.w3.org/2000/svg">
<path d="M7.5 3C4.4624 3 2 5.46186 2 8.49969C2 11.6835 3.8135 14.6873 6.8125 17.4372C7.8361 18.3751 8.9382 19.1981 10.0312 19.937C10.4143 20.195 10.7726 20.429 11.0938 20.624C11.2896 20.743 11.4187 20.829 11.5 20.874C11.802 21.042 12.198 21.042 12.5 20.874C12.5813 20.829 12.7104 20.743 12.9062 20.624C13.2274 20.429 13.5857 20.195 13.9688 19.937C15.0618 19.1981 16.1639 18.3751 17.1875 17.4372C20.1865 14.6873 22 11.6835 22 8.49969C22 5.46186 19.5376 3 16.5 3C14.7748 3 13.0904 3.93996 12.0312 5.31188C10.9984 3.91596 9.3199 3 7.5 3ZM7.5 4.99989C8.7139 4.99989 9.8475 5.61587 10.5 6.56181C10.5634 6.65381 11.0633 7.38876 11.1562 7.53075C11.5431 8.12372 12.4063 8.14173 12.8125 7.56176C12.9113 7.42077 13.4316 6.68879 13.5 6.59379C14.1811 5.64185 15.3732 4.99989 16.5 4.99989C18.433 4.99989 20 6.5668 20 8.49969C20 11.0026 18.4385 13.5294 15.8125 15.9373C14.8673 16.8032 13.8601 17.5932 12.8438 18.2802C12.5365 18.4881 12.2624 18.6501 12 18.8111C11.7376 18.6501 11.4635 18.4881 11.1562 18.2802C10.1399 17.5932 9.1327 16.8032 8.1875 15.9373C5.5615 13.5294 4 11.0026 4 8.49969C4 6.5668 5.567 4.99989 7.5 4.99989Z" fill="#6B7280"/>
</svg>
