<?xml version="1.0" encoding="UTF-8"?>
<svg version="1.1" xmlns="http://www.w3.org/2000/svg" width="512" height="512">
<path d="M0 0 C57.28449964 -0.09153907 114.56899222 -0.16203847 171.85355061 -0.20426132 C178.61525782 -0.20925061 185.37696489 -0.21443683 192.13867188 -0.21972656 C192.81153834 -0.2202496 193.4844048 -0.22077263 194.17766116 -0.22131152 C215.98210163 -0.23835295 237.78650059 -0.26839523 259.59091592 -0.30518888 C282.63568985 -0.34400488 305.68044387 -0.36798697 328.72525227 -0.37635398 C342.52917984 -0.38184466 356.33298826 -0.39919175 370.13687916 -0.43166587 C379.60045339 -0.45279627 389.06396595 -0.45920336 398.52756207 -0.45400551 C403.98900129 -0.45144147 409.45023218 -0.45539479 414.91163445 -0.4768219 C419.91334475 -0.49630216 424.91470682 -0.49726025 429.91643323 -0.48359558 C431.72414322 -0.48190698 433.53187502 -0.48696855 435.33954214 -0.49953273 C444.55352145 -0.55984128 452.68547347 -0.50934543 461 4 C462.20824733 4.58351145 463.41656993 5.1668671 464.625 5.75 C465.800625 6.36875 465.800625 6.36875 467 7 C467 7.66 467 8.32 467 9 C467.86625 9.061875 467.86625 9.061875 468.75 9.125 C472.11600658 10.43400256 473.1308624 13.00937984 475 16 C475.66 16.33 476.32 16.66 477 17 C477.625 20.0625 477.625 20.0625 478 23 C478.66 23 479.32 23 480 23 C482.50702064 33.52053306 482.50702064 42.47946694 480 53 C479.34 53 478.68 53 478 53 C477.938125 53.886875 477.87625 54.77375 477.8125 55.6875 C476.80475197 59.79601121 475.13512823 61.23810132 472 64 C471.1646875 64.8971875 471.1646875 64.8971875 470.3125 65.8125 C469 67 469 67 467 67 C467 67.66 467 68.32 467 69 C455.70294159 75.9705254 445.70716076 76.42795097 432.79600525 76.36076355 C430.92795145 76.36207259 429.05989819 76.36470081 427.19184786 76.36853105 C422.07000133 76.37522868 416.94834354 76.3632532 411.82652104 76.34819686 C406.29902036 76.3352304 400.77153016 76.3396264 395.24401855 76.34190369 C385.67100952 76.34347603 376.09806188 76.33407084 366.52506828 76.31719017 C352.68416923 76.29279954 338.84329984 76.28499483 325.00238163 76.2812262 C302.54592274 76.27466182 280.0894961 76.2547268 257.63305664 76.22631836 C235.81990733 76.1987556 214.00676676 76.1775094 192.19360352 76.16479492 C191.52096803 76.16440034 190.84833255 76.16400576 190.15531418 76.16359923 C183.40029746 76.1596436 176.64528067 76.15581616 169.89026382 76.15208265 C113.2601529 76.12077106 56.63007818 76.06784289 0 76 C0 75.34 0 74.68 0 74 C-0.59167969 73.96261719 -1.18335937 73.92523438 -1.79296875 73.88671875 C-9.7182915 73.22735258 -14.19195675 70.26776016 -20 65 C-20 64.34 -20 63.68 -20 63 C-20.99 62.67 -21.98 62.34 -23 62 C-28.94619504 54.19561901 -30.56101392 47.78539703 -30.5 38.1875 C-30.49577026 36.71917725 -30.49577026 36.71917725 -30.49145508 35.22119141 C-30.33317962 28.18293462 -29.38129017 22.70184806 -25 17 C-24.49082031 16.26007813 -23.98164063 15.52015625 -23.45703125 14.7578125 C-22.97621094 14.17773438 -22.49539062 13.59765625 -22 13 C-21.34 13 -20.68 13 -20 13 C-19.67 12.01 -19.34 11.02 -19 10 C-16.75 8 -16.75 8 -14 6 C-13.2575 5.443125 -12.515 4.88625 -11.75 4.3125 C-7.92541407 2.48712944 -4.19246369 2.26488333 0 2 C0 1.34 0 0.68 0 0 Z " fill="#5E5E5E" transform="translate(30,218)"/>
<path d="M0 0 C152.46 0 304.92 0 462 0 C462 0.66 462 1.32 462 2 C463.98 2.33 465.96 2.66 468 3 C468 3.66 468 4.32 468 5 C468.721875 5.226875 469.44375 5.45375 470.1875 5.6875 C473.57355877 7.26766076 475.46677659 9.27191325 478 12 C478.7425 12.639375 479.485 13.27875 480.25 13.9375 C482.47090625 16.55499665 482.6937722 18.63149425 483 22 C483.66 22 484.32 22 485 22 C487.50702064 32.52053306 487.50702064 41.47946694 485 52 C484.34 52 483.68 52 483 52 C482.87044922 53.09054688 482.87044922 53.09054688 482.73828125 54.203125 C481.8528104 57.55760716 480.504077 59.18844176 478.1875 61.75 C477.50042969 62.52859375 476.81335938 63.3071875 476.10546875 64.109375 C473.97640238 66.0211897 472.79267916 66.62345899 470 67 C470 67.66 470 68.32 470 69 C468.35 69.33 466.7 69.66 465 70 C465 70.66 465 71.32 465 72 C456.05826702 74.6142925 447.08097473 74.27879488 437.85656738 74.25396729 C435.99492792 74.25627309 434.13328936 74.25945042 432.2716527 74.26342177 C427.16722774 74.27176191 422.06287767 74.26764802 416.95845246 74.26144934 C411.44917944 74.25692268 405.93991927 74.26390968 400.4306488 74.26940918 C389.64240387 74.27830252 378.85418676 74.27638142 368.06594074 74.2705839 C359.29811365 74.26606719 350.53029435 74.26545455 341.76246643 74.26763153 C340.51459643 74.267938 339.26672642 74.26824446 337.98104218 74.26856022 C335.44602056 74.26919967 332.91099895 74.26984809 330.37597734 74.2705054 C307.28256977 74.27604594 284.18917534 74.27030012 261.09577096 74.2598202 C240.02135871 74.25032924 218.94697063 74.2511785 197.87255859 74.26074219 C174.18657855 74.27145513 150.50060915 74.2756592 126.81462622 74.26951766 C124.28892867 74.26888056 121.76323112 74.26825182 119.23753357 74.26763153 C117.99484114 74.26732298 116.75214871 74.26701443 115.47179893 74.26669653 C106.71447744 74.26496966 97.95716452 74.26788452 89.19984436 74.27259064 C78.5276579 74.27819972 67.85550087 74.27668241 57.18331778 74.26602915 C51.73820732 74.26077284 46.29314591 74.25871506 40.84803581 74.26532745 C35.86285031 74.27128978 30.8777593 74.26800703 25.89258236 74.25737235 C24.08987774 74.25513954 22.28716513 74.25627194 20.48446566 74.26112393 C3.87494849 74.30239695 3.87494849 74.30239695 -4 72 C-4 71.34 -4 70.68 -4 70 C-5.65 69.67 -7.3 69.34 -9 69 C-9 68.34 -9 67.68 -9 67 C-9.721875 66.79375 -10.44375 66.5875 -11.1875 66.375 C-14.97218384 64.52471012 -16.52258653 62.39759562 -19 59 C-19 58.34 -19 57.68 -19 57 C-19.66 57 -20.32 57 -21 57 C-26.54301785 47.81937668 -26.2516035 36.35534946 -25 26 C-23.86945052 22.14361975 -22.34746479 19.23533113 -20 16 C-19.64292969 15.39027344 -19.28585938 14.78054687 -18.91796875 14.15234375 C-17.0243352 10.96108083 -15.38961486 9.42145139 -12 8 C-11.525625 7.525625 -11.05125 7.05125 -10.5625 6.5625 C-8.55524595 4.55524595 -6.52389582 3.29272713 -4 2 C-2.68 2 -1.36 2 0 2 C0 1.34 0 0.68 0 0 Z " fill="#5E5E5E" transform="translate(25,37)"/>
<path d="M0 0 C1.42308582 -0.00467997 1.42308582 -0.00467997 2.87492085 -0.00945449 C6.03215691 -0.01738805 9.18919829 -0.01112899 12.34643555 -0.00482178 C14.61884676 -0.0075337 16.8912571 -0.01109576 19.16366577 -0.01544189 C25.32058755 -0.02454419 31.47744216 -0.02103051 37.63436508 -0.01468372 C44.0843702 -0.00961258 50.53436965 -0.01431828 56.984375 -0.01745605 C68.50834137 -0.02132522 80.03227347 -0.01511833 91.55623448 -0.00493738 C101.9925015 0.00399739 112.42872402 0.00244512 122.86499023 -0.0067749 C135.00141834 -0.01749202 147.13781154 -0.02145446 159.27424526 -0.01555037 C165.69241339 -0.01243581 172.1105509 -0.01200726 178.52871704 -0.01862335 C184.56323923 -0.02440969 190.59767755 -0.02037625 196.6321907 -0.00883484 C198.84407029 -0.00619516 201.05595696 -0.0069415 203.26783371 -0.01136017 C206.29241994 -0.01684433 209.31673925 -0.00994662 212.34130859 0 C213.64682662 -0.00669217 213.64682662 -0.00669217 214.97871876 -0.01351953 C220.60747089 0.02225881 225.72947627 0.81732842 231.1706543 2.25396729 C231.1706543 2.91396729 231.1706543 3.57396729 231.1706543 4.25396729 C232.8206543 4.58396729 234.4706543 4.91396729 236.1706543 5.25396729 C236.1706543 5.91396729 236.1706543 6.57396729 236.1706543 7.25396729 C236.90670898 7.48213135 237.64276367 7.71029541 238.40112305 7.94537354 C241.73658487 9.52136748 243.22467329 11.29499729 245.4831543 14.19146729 C246.18053711 15.06674072 246.87791992 15.94201416 247.59643555 16.84381104 C249.1706543 19.25396729 249.1706543 19.25396729 249.1706543 22.25396729 C249.8306543 22.25396729 250.4906543 22.25396729 251.1706543 22.25396729 C253.67767494 32.77450035 253.67767494 41.73343422 251.1706543 52.25396729 C250.5106543 52.25396729 249.8506543 52.25396729 249.1706543 52.25396729 C249.0881543 53.16146729 249.0056543 54.06896729 248.9206543 55.00396729 C248.04688233 58.79031248 247.06803259 59.75900265 244.1706543 62.25396729 C243.3662793 63.12021729 242.5619043 63.98646729 241.7331543 64.87896729 C239.22872551 67.20014518 237.39303874 68.24121789 234.1706543 69.25396729 C234.1706543 69.91396729 234.1706543 70.57396729 234.1706543 71.25396729 C232.1906543 71.58396729 230.2106543 71.91396729 228.1706543 72.25396729 C228.1706543 72.91396729 228.1706543 73.57396729 228.1706543 74.25396729 C197.13756721 74.29956392 166.10448895 74.33497187 135.07137633 74.35609794 C131.41005162 74.35859944 127.74872696 74.36118808 124.08740234 74.36383057 C122.99401773 74.3646175 122.99401773 74.3646175 121.87854455 74.36542033 C110.0662171 74.37412984 98.25390906 74.38990281 86.44159313 74.40827288 C74.32671691 74.42695675 62.21185088 74.4380808 50.09696084 74.44214427 C42.61765536 74.44489248 35.13840473 74.4535815 27.65911613 74.46980022 C21.93004538 74.48159296 16.20101001 74.48288246 10.47192955 74.48018265 C8.11724 74.48073487 5.76254847 74.48473943 3.40787125 74.49237823 C0.20337019 74.50226786 -3.00089246 74.49995809 -6.20539856 74.49447632 C-7.61637785 74.50321484 -7.61637785 74.50321484 -9.05586177 74.5121299 C-9.91178344 74.50814781 -10.7677051 74.50416571 -11.64956379 74.50006294 C-12.75967617 74.5012021 -12.75967617 74.5012021 -13.89221507 74.50236428 C-15.8293457 74.25396729 -15.8293457 74.25396729 -18.8293457 72.25396729 C-20.3143457 71.75896729 -20.3143457 71.75896729 -21.8293457 71.25396729 C-21.8293457 70.59396729 -21.8293457 69.93396729 -21.8293457 69.25396729 C-22.5099707 69.04771729 -23.1905957 68.84146729 -23.8918457 68.62896729 C-27.80146983 66.79893046 -30.92505211 64.45573569 -33.8293457 61.25396729 C-34.7668457 58.37896729 -34.7668457 58.37896729 -34.8293457 56.25396729 C-35.4893457 56.25396729 -36.1493457 56.25396729 -36.8293457 56.25396729 C-37.1593457 53.94396729 -37.4893457 51.63396729 -37.8293457 49.25396729 C-38.4893457 49.25396729 -39.1493457 49.25396729 -39.8293457 49.25396729 C-40.79573229 45.20434732 -40.96330686 41.41194322 -40.9543457 37.25396729 C-40.95692383 36.05771729 -40.95950195 34.86146729 -40.9621582 33.62896729 C-40.84692508 30.70069035 -40.50758133 28.09609753 -39.8293457 25.25396729 C-39.1693457 25.25396729 -38.5093457 25.25396729 -37.8293457 25.25396729 C-37.7055957 24.11959229 -37.5818457 22.98521729 -37.4543457 21.81646729 C-37.2480957 20.64084229 -37.0418457 19.46521729 -36.8293457 18.25396729 C-36.1693457 17.92396729 -35.5093457 17.59396729 -34.8293457 17.25396729 C-34.4993457 16.26396729 -34.1693457 15.27396729 -33.8293457 14.25396729 C-33.1693457 14.25396729 -32.5093457 14.25396729 -31.8293457 14.25396729 C-31.4993457 13.26396729 -31.1693457 12.27396729 -30.8293457 11.25396729 C-26.37220285 7.25396729 -26.37220285 7.25396729 -23.8293457 7.25396729 C-23.8293457 6.59396729 -23.8293457 5.93396729 -23.8293457 5.25396729 C-22.1793457 4.92396729 -20.5293457 4.59396729 -18.8293457 4.25396729 C-18.8293457 3.59396729 -18.8293457 2.93396729 -18.8293457 2.25396729 C-12.46836092 0.57447106 -6.56485494 -0.03365185 0 0 Z " fill="#5E5E5E" transform="translate(258.829345703125,400.74603271484375)"/>
</svg>
